<svg width="60" height="54" viewBox="0 0 60 54" fill="none" xmlns="http://www.w3.org/2000/svg">
<path d="M30.3849 19.2675C27.0048 19.2675 24.2645 22.0076 24.2645 25.3878C24.2645 28.7679 27.0047 31.5082 30.3849 31.5082C33.765 31.5082 36.5052 28.768 36.5052 25.3878C36.5052 22.0076 33.7651 19.2675 30.3849 19.2675ZM30.3849 28.5936C28.6143 28.5936 27.179 27.1583 27.179 25.3877C27.179 23.6171 28.6143 22.1818 30.3849 22.1818C32.1555 22.1818 33.5908 23.6171 33.5908 25.3877C33.5908 27.1583 32.1555 28.5936 30.3849 28.5936Z" fill="white"/>
<path d="M54.7934 5.27798L15.0114 0.760726C13.4674 0.541216 11.9031 0.991952 10.7127 1.99941C9.52236 2.92236 8.75938 4.29047 8.59969 5.78813L7.87115 11.7627H5.61231C2.4064 11.7627 0.0019614 14.6043 0.0019614 17.8102V47.6102C-0.0787862 50.6673 2.33402 53.2112 5.39127 53.2919C5.4649 53.2939 5.53868 53.2943 5.61231 53.2933H45.6129C48.8188 53.2933 51.7333 50.8161 51.7333 47.6102V46.4444C52.7272 46.2524 53.6701 45.8554 54.502 45.2787C55.6825 44.2848 56.4384 42.8772 56.6149 41.3442L59.9666 11.7627C60.3083 8.54944 58.0023 5.65885 54.7934 5.27798ZM48.8188 47.6102C48.8188 49.2131 47.2159 50.3789 45.6129 50.3789H5.61231C4.1643 50.4214 2.95601 49.282 2.91348 47.834C2.91124 47.7594 2.91222 47.6848 2.9164 47.6102V42.2185L14.2099 33.9124C15.5666 32.8708 17.4775 32.9634 18.7273 34.1309L26.6692 41.1256C27.8752 42.1382 29.3934 42.7042 30.968 42.7285C32.1992 42.7436 33.4101 42.4157 34.4654 41.7813L48.8189 33.4752V47.6102H48.8188ZM48.8188 30.0507L32.9351 39.3041C31.5712 40.1121 29.8448 39.9658 28.6362 38.9398L20.6216 31.8722C18.3245 29.8984 14.9672 29.7774 12.534 31.5808L2.9164 38.5754V17.8102C2.9164 16.2072 4.00936 14.6772 5.61231 14.6772H45.6129C47.3255 14.7482 48.7085 16.0998 48.8188 17.8102V30.0507ZM57.0549 11.3693C57.0539 11.379 57.0531 11.3887 57.052 11.3983L53.6275 40.9798C53.6334 41.7469 53.2836 42.4733 52.6803 42.9471C52.3889 43.2385 51.7331 43.3843 51.7331 43.53V17.8102C51.6181 14.4909 48.9332 11.8379 45.6128 11.7627H10.7855L11.4412 6.0796C11.5834 5.34367 11.9682 4.67677 12.5341 4.18517C13.1732 3.74336 13.9458 3.53738 14.7201 3.60223L54.4293 8.19243C56.0314 8.34458 57.2071 9.76693 57.0549 11.3693Z" fill="white"/>
</svg>
