<svg width="50" height="50" viewBox="0 0 50 50" fill="none" xmlns="http://www.w3.org/2000/svg">
<path d="M37.4999 37.4999V40.2342C37.4999 41.328 38.3593 42.1873 39.4139 42.1873H42.578V37.4998H37.4999V37.4999ZM7.42188 42.1874H10.586C11.6407 42.1874 12.5 41.328 12.5 40.2343V37.5H7.42188C7.42188 37.5001 7.42188 42.1874 7.42188 42.1874Z" fill="#1E2E37"/>
<path d="M41.0155 37.4999V43.8671C41.0155 45.3124 42.1873 46.4843 43.5936 46.4843H45.0389C46.4842 46.4843 47.617 45.3125 47.617 43.8671V36.7186L41.0155 37.4999ZM2.34375 43.8671C2.34375 45.3124 3.51558 46.4843 4.92189 46.4843H6.36716C7.81244 46.4843 8.9453 45.3125 8.9453 43.8671V37.4999L2.34375 36.7186V43.8671Z" fill="#324D5B"/>
<path d="M24.8437 3.5156H24.961C38.2031 3.5156 41.4062 9.17968 41.4062 19.9218H8.59375C8.59375 9.17968 11.8359 3.5156 24.8437 3.5156Z" fill="#BF392B"/>
<path d="M24.8828 5.46868H25.0001C36.6407 5.46868 39.4532 10.4686 39.4532 19.9218H10.5469C10.5469 10.4687 13.3985 5.46868 24.8828 5.46868Z" fill="#85C6DC"/>
<path d="M25 33.2031C32.9687 33.2031 39.4531 34.6875 39.4531 36.5234C39.4531 38.3594 32.9687 39.8437 25 39.8437C17.0312 39.8437 10.5469 38.3594 10.5469 36.5234C10.5468 34.6874 17.0312 33.2031 25 33.2031Z" fill="#85281E"/>
<path d="M8.75003 21.0937L25.0391 18.75L41.25 21.0937C46.0937 21.0937 50 25.039 50 29.9609V31.8749C50 33.2811 49.375 34.414 47.5 34.414H2.49998C0.664023 34.375 0 33.2421 0 31.8359V29.9219C0 25.039 3.90628 21.0937 8.75003 21.0937Z" fill="#BF392B"/>
<path d="M1.99216 33.9843H47.9687C48.6327 33.9843 49.1796 34.4921 49.1796 35.1561C49.1796 36.4452 48.0858 37.4999 46.7187 37.4999H3.24215C1.87493 37.4999 0.78125 36.4452 0.78125 35.1561C0.78125 34.4921 1.32814 33.9843 1.99216 33.9843Z" fill="#E4E7E7"/>
<path d="M41.9139 19.8828C41.9139 19.8828 37.3826 21.6797 34.9998 29.6094C34.9998 29.6094 33.6717 33.9844 30.6248 33.9844H19.3749C16.328 33.9844 14.9999 29.6094 14.9999 29.6094C12.617 21.6797 8.12487 19.961 8.12487 19.961C6.56236 19.3359 8.12487 18.3984 8.12487 18.3984C14.453 14.8047 24.9999 15.2343 24.9999 15.2343C24.9999 15.2343 35.5077 14.7656 41.9139 18.3984C41.9139 18.3984 43.3591 19.2187 41.9139 19.8828Z" fill="#E2574C"/>
<path d="M16.7188 29.0625C16.9141 29.6875 17.9297 32.0312 19.2188 32.0312H22.6562V17.1874C16.7187 17.1874 12.8516 18.2812 10.5469 19.2968C12.3438 20.6641 15.0391 23.5155 16.7188 29.0625ZM27.3437 17.1874V32.0312H30.4297C31.7578 32.0312 32.7344 29.6874 32.9297 29.0625C34.5703 23.5938 37.2265 20.7031 39.0234 19.2968C36.7969 18.2812 33.0469 17.2265 27.3437 17.1874Z" fill="#BF392B"/>
<path d="M24.2188 15.2344H25.7813V33.9843H24.2188V15.2344Z" fill="#E87970"/>
<path d="M7.03123 24.6093C5.07814 24.6093 3.51562 26.1718 3.51562 28.1249C3.51562 30.078 5.07814 31.6405 7.03123 31.6405C8.98432 31.6405 10.5468 30.078 10.5468 28.1249C10.5468 26.1719 8.98442 24.6093 7.03123 24.6093ZM42.9687 24.6093C41.0156 24.6093 39.4531 26.1718 39.4531 28.1249C39.4531 30.078 41.0156 31.6405 42.9687 31.6405C44.9218 31.6405 46.4843 30.078 46.4843 28.1249C46.4843 26.1719 44.9218 24.6093 42.9687 24.6093Z" fill="#E0E3E4"/>
<path d="M7.03121 26.9531C6.36719 26.9531 5.85938 27.4609 5.85938 28.1249C5.85938 28.789 6.36719 29.2968 7.03121 29.2968C7.69523 29.2968 8.20304 28.789 8.20304 28.1249C8.20304 27.4609 7.65625 26.9531 7.03121 26.9531ZM42.9687 26.9531C42.3047 26.9531 41.7969 27.4609 41.7969 28.1249C41.7969 28.789 42.3047 29.2968 42.9687 29.2968C43.6327 29.2968 44.1405 28.789 44.1405 28.1249C44.1405 27.4609 43.6327 26.9531 42.9687 26.9531Z" fill="#C0C8CB"/>
<path d="M42.3045 19.1406H41.6014C40.8202 19.1406 40.1952 19.7266 40.1952 20.5079V21.1719C40.1952 21.5625 40.9765 21.8359 41.914 21.8359C42.8905 21.8359 43.6327 21.5234 43.6327 21.1719V20.5079C43.7108 19.7656 43.0858 19.1406 42.3045 19.1406ZM8.32024 19.1406H7.61714C6.83588 19.1406 6.21094 19.7266 6.21094 20.5079V21.1719C6.21094 21.5625 6.99219 21.8359 7.92966 21.8359C8.86713 21.8359 9.64839 21.5234 9.64839 21.1719V20.5079C9.72654 19.7656 9.1015 19.1406 8.32024 19.1406Z" fill="#F4B459"/>
<path d="M11.6406 12.1484C13.5937 11.1718 19.2578 8.67187 24.9219 8.67187C30.625 8.67187 36.3672 11.1718 38.3203 12.1484C36.6796 7.7343 32.8516 5.46868 24.9999 5.46868H24.8827C17.1484 5.46868 13.3204 7.7344 11.6406 12.1484Z" fill="#92D2E8"/>
<path d="M42.9687 25.3906C44.4921 25.3906 45.7031 26.6015 45.7031 28.1249C45.7031 29.6484 44.4921 30.8593 42.9687 30.8593C41.4453 30.8593 40.2344 29.6484 40.2344 28.1249C40.2344 26.6016 41.4453 25.3906 42.9687 25.3906ZM7.03123 25.3906C8.55466 25.3906 9.76558 26.6015 9.76558 28.1249C9.76558 29.6484 8.55466 30.8593 7.03123 30.8593C5.50779 30.8593 4.29688 29.6484 4.29688 28.1249C4.29688 26.6016 5.50779 25.3906 7.03123 25.3906ZM42.9687 24.6093C41.0156 24.6093 39.4531 26.1718 39.4531 28.1249C39.4531 30.078 41.0156 31.6405 42.9687 31.6405C44.9218 31.6405 46.4843 30.078 46.4843 28.1249C46.4843 26.1719 44.9218 24.6093 42.9687 24.6093ZM7.03123 24.6093C5.07814 24.6093 3.51562 26.1718 3.51562 28.1249C3.51562 30.078 5.07814 31.6405 7.03123 31.6405C8.98432 31.6405 10.5468 30.078 10.5468 28.1249C10.5468 26.1719 8.98442 24.6093 7.03123 24.6093Z" fill="#CCD0D2"/>
</svg>
