<svg width="86" height="53" viewBox="0 0 86 53" fill="none" xmlns="http://www.w3.org/2000/svg">
<path d="M9.26503 35C7.52967 35 5.95609 34.5513 4.54428 33.6538C3.13246 32.7854 2.01478 31.5261 1.19122 29.8759C0.397073 28.2258 0 26.3007 0 24.1005C0 20.4529 0.926503 16.7473 2.77951 12.9839C4.66193 9.22043 7.10319 6.12283 10.1033 3.69107C13.1034 1.23036 16.177 0 19.3242 0C20.5301 0 21.5302 0.405294 22.3243 1.21588C21.8537 1.15798 21.4272 1.12903 21.0448 1.12903C18.5742 1.12903 16.0447 2.34491 13.4563 4.77668C10.8974 7.20844 8.77972 10.2481 7.10319 13.8958C5.42666 17.5434 4.58839 21.0318 4.58839 24.361C4.58839 26.8507 5.08841 28.9061 6.08845 30.5273C7.11789 32.1195 8.69148 32.9156 10.8092 32.9156C13.3681 32.9156 15.7064 31.7142 17.8241 29.3114C19.9713 26.9086 21.6478 23.9268 22.8537 20.366C24.0891 16.7763 24.7067 13.3602 24.7067 10.1179C24.7067 8.52564 24.545 7.09264 24.2214 5.81886C23.9273 4.51613 23.4273 3.86476 22.7214 3.86476C22.1037 3.86476 21.3831 4.38586 20.5595 5.42804C19.7654 6.44127 19.0301 7.67163 18.3536 9.11911C17.6771 10.5666 17.2212 11.8693 16.9859 13.0273C15.1329 12.651 14.2064 11.8114 14.2064 10.5087C14.2064 9.49545 14.6917 8.323 15.6623 6.99132C16.6329 5.65964 17.7947 4.51613 19.1477 3.56079C20.5007 2.57651 21.7213 2.08437 22.8096 2.08437C24.3685 2.08437 25.4568 3.05418 26.0744 4.9938C26.6921 6.93342 27.0009 9.16253 27.0009 11.6811C27.0009 16.3131 26.0744 20.4094 24.2214 23.9702C22.3684 27.5021 20.0595 30.2233 17.2947 32.134C14.5593 34.0447 11.8828 35 9.26503 35Z" fill="#4F4F4F"/>
<path d="M31.5132 33.2196C30.1602 33.2196 29.1013 32.8288 28.3366 32.0471C27.5718 31.2945 27.1895 30.1654 27.1895 28.66C27.1895 27.531 27.4101 26.098 27.8513 24.361C28.2925 22.5951 28.8807 20.7279 29.616 18.7593C28.8513 18.6146 28.3366 18.4843 28.0719 18.3685V17.0223C28.7778 17.1092 29.4837 17.1816 30.1896 17.2395C31.5132 13.9682 32.925 11.16 34.425 8.81514C35.9545 6.47022 37.1898 5.29777 38.131 5.29777C38.4546 5.29777 38.734 5.41357 38.9693 5.64516C39.234 5.87676 39.3664 6.18073 39.3664 6.55707C39.3664 7.02027 39.1605 7.64268 38.7487 8.42432C38.3369 9.20596 37.6604 10.3929 36.7192 11.9851C35.4251 14.1274 34.4103 15.9222 33.675 17.3697C37.0575 17.3697 39.7487 17.2684 41.7488 17.0658V18.4988C38.2781 18.8462 35.3221 19.0199 32.8809 19.0199C31.3514 22.5806 30.5867 25.4901 30.5867 27.7481C30.5867 28.9351 30.7778 29.7746 31.1602 30.2667C31.5426 30.7589 32.1455 31.005 32.9691 31.005C34.4397 31.005 35.9398 30.3536 37.4692 29.0509C39.0281 27.7192 40.3811 25.9243 41.5282 23.6663L42.1459 24.1005C40.94 26.7928 39.3811 28.993 37.4692 30.701C35.5574 32.3801 33.5721 33.2196 31.5132 33.2196Z" fill="#4F4F4F"/>
<path d="M44.2233 33.2196C42.8703 33.2196 41.8114 32.8288 41.0467 32.0471C40.282 31.2945 39.8996 30.1654 39.8996 28.66C39.8996 27.531 40.1202 26.098 40.5614 24.361C41.0026 22.5951 41.5908 20.7279 42.3262 18.7593C41.5614 18.6146 41.0467 18.4843 40.782 18.3685V17.0223C41.4879 17.1092 42.1938 17.1816 42.8997 17.2395C44.2233 13.9682 45.6351 11.16 47.1351 8.81514C48.6646 6.47022 49.8999 5.29777 50.8412 5.29777C51.1647 5.29777 51.4441 5.41357 51.6794 5.64516C51.9441 5.87676 52.0765 6.18073 52.0765 6.55707C52.0765 7.02027 51.8706 7.64268 51.4588 8.42432C51.047 9.20596 50.3705 10.3929 49.4293 11.9851C48.1352 14.1274 47.1204 15.9222 46.3851 17.3697C49.7676 17.3697 52.4589 17.2684 54.4589 17.0658V18.4988C50.9882 18.8462 48.0322 19.0199 45.591 19.0199C44.0615 22.5806 43.2968 25.4901 43.2968 27.7481C43.2968 28.9351 43.488 29.7746 43.8703 30.2667C44.2527 30.7589 44.8556 31.005 45.6792 31.005C47.1498 31.005 48.6499 30.3536 50.1794 29.0509C51.7382 27.7192 53.0912 25.9243 54.2383 23.6663L54.856 24.1005C53.6501 26.7928 52.0912 28.993 50.1794 30.701C48.2675 32.3801 46.2822 33.2196 44.2233 33.2196Z" fill="#4F4F4F"/>
<path d="M58.0364 33.1328C56.1834 33.1328 54.7421 32.6406 53.7127 31.6563C52.6832 30.672 52.1685 29.4127 52.1685 27.8784C52.1685 26.1993 52.7421 24.39 53.8892 22.4504C55.0363 20.4818 56.5069 18.8462 58.3011 17.5434C60.0953 16.2117 61.86 15.5459 63.5954 15.5459C64.5072 15.5459 65.2719 15.7775 65.8896 16.2407C66.5072 16.6749 66.8161 17.4132 66.8161 18.4553C66.8161 19.8449 66.2719 21.1621 65.1837 22.4069C64.0954 23.6228 62.6836 24.6216 60.9482 25.4032C59.2423 26.1849 57.4922 26.677 55.698 26.8797C55.6392 27.1691 55.6098 27.5021 55.6098 27.8784C55.6098 28.6311 55.8157 29.3838 56.2275 30.1365C56.6687 30.8892 57.5952 31.2655 59.007 31.2655C60.8012 31.2655 62.6248 30.5562 64.4778 29.1377C66.3602 27.6902 67.8749 25.8954 69.022 23.7531L69.9044 24.4479C68.7279 27.0534 67.0367 29.1522 64.8307 30.7444C62.6542 32.3366 60.3894 33.1328 58.0364 33.1328ZM56.1834 25.273C57.2422 25.1572 58.4187 24.7374 59.7129 24.0136C61.0365 23.2899 62.1542 22.4069 63.066 21.3648C63.9777 20.2936 64.4336 19.2514 64.4336 18.2382C64.4336 17.9198 64.3748 17.7026 64.2572 17.5869C64.1395 17.4711 63.9483 17.4132 63.6836 17.4132C62.8306 17.4132 61.8894 17.8184 60.86 18.629C59.86 19.4107 58.9335 20.4094 58.0805 21.6253C57.2275 22.8412 56.5951 24.0571 56.1834 25.273Z" fill="#4F4F4F"/>
<path d="M76.1173 32.3511C75.029 32.3511 74.1466 32.0616 73.4702 31.4826C72.7937 30.9326 72.4554 30.1799 72.4554 29.2246C72.4554 28.6745 72.5584 28.0811 72.7642 27.4442C72.9995 26.7783 73.3378 25.9822 73.779 25.0558C74.1614 24.2452 74.4555 23.5649 74.6614 23.0149C74.8673 22.4359 74.9702 21.9293 74.9702 21.495C74.9702 20.395 74.2349 19.4686 72.7642 18.7159C72.176 20.1634 71.4848 21.6253 70.6906 23.1017C69.9259 24.5782 69.2347 25.823 68.617 26.8362L67.9553 25.5769C69.3082 23.2031 70.4995 20.5831 71.5289 17.7171C71.2348 17.4276 71.0877 17.0368 71.0877 16.5447C71.0877 15.792 71.323 15.0827 71.7936 14.4169C72.2642 13.751 72.7201 13.4181 73.1613 13.4181C73.4554 13.4181 73.6907 13.5918 73.8672 13.9392C74.0731 14.2866 74.1761 14.5761 74.1761 14.8077C74.1761 14.9235 74.1025 15.184 73.9555 15.5893C73.8378 15.9657 73.7496 16.2407 73.6907 16.4144C73.7202 16.617 73.8378 16.8197 74.0437 17.0223C74.2496 17.196 74.632 17.4566 75.1908 17.804C76.2202 18.4698 77.0144 19.1212 77.5732 19.7581C78.1615 20.366 78.4556 21.1911 78.4556 22.2333C78.4556 22.8701 78.338 23.507 78.1027 24.1439C77.8968 24.7808 77.5732 25.548 77.132 26.4454C76.485 27.7192 76.1614 28.6311 76.1614 29.1811C76.1614 29.847 76.5291 30.1799 77.2644 30.1799C78.1468 30.1799 79.1027 29.8325 80.1321 29.1377C81.191 28.4429 82.1469 27.6034 82.9999 26.6191C83.8823 25.6059 84.5294 24.665 84.9411 23.7965L86 24.5782C85.4117 25.8809 84.5882 27.1257 83.5293 28.3127C82.4705 29.4996 81.2792 30.4694 79.9557 31.2221C78.6615 31.9748 77.382 32.3511 76.1173 32.3511Z" fill="#4F4F4F"/>
<path d="M3.59766 49.1172C2.66797 49.1172 1.94727 48.832 1.43555 48.2617C0.927734 47.6875 0.673828 46.877 0.673828 45.8301C0.673828 44.7559 0.931641 43.9258 1.44727 43.3398C1.9668 42.7539 2.70508 42.4609 3.66211 42.4609C3.9707 42.4609 4.2793 42.4941 4.58789 42.5605C4.89648 42.627 5.13867 42.7051 5.31445 42.7949L5.01562 43.6211C4.80078 43.5352 4.56641 43.4648 4.3125 43.4102C4.05859 43.3516 3.83398 43.3223 3.63867 43.3223C2.33398 43.3223 1.68164 44.1543 1.68164 45.8184C1.68164 46.6074 1.83984 47.2129 2.15625 47.6348C2.47656 48.0566 2.94922 48.2676 3.57422 48.2676C4.10938 48.2676 4.6582 48.1523 5.2207 47.9219V48.7832C4.79102 49.0059 4.25 49.1172 3.59766 49.1172ZM10.6992 49L10.5059 48.0859H10.459C10.1387 48.4883 9.81836 48.7617 9.49805 48.9062C9.18164 49.0469 8.78516 49.1172 8.30859 49.1172C7.67188 49.1172 7.17188 48.9531 6.80859 48.625C6.44922 48.2969 6.26953 47.8301 6.26953 47.2246C6.26953 45.9277 7.30664 45.248 9.38086 45.1855L10.4707 45.1504V44.752C10.4707 44.248 10.3613 43.877 10.1426 43.6387C9.92773 43.3965 9.58203 43.2754 9.10547 43.2754C8.57031 43.2754 7.96484 43.4395 7.28906 43.7676L6.99023 43.0234C7.30664 42.8516 7.65234 42.7168 8.02734 42.6191C8.40625 42.5215 8.78516 42.4727 9.16406 42.4727C9.92969 42.4727 10.4961 42.6426 10.8633 42.9824C11.2344 43.3223 11.4199 43.8672 11.4199 44.6172V49H10.6992ZM8.50195 48.3145C9.10742 48.3145 9.58203 48.1484 9.92578 47.8164C10.2734 47.4844 10.4473 47.0195 10.4473 46.4219V45.8418L9.47461 45.8828C8.70117 45.9102 8.14258 46.0312 7.79883 46.2461C7.45898 46.457 7.28906 46.7871 7.28906 47.2363C7.28906 47.5879 7.39453 47.8555 7.60547 48.0391C7.82031 48.2227 8.11914 48.3145 8.50195 48.3145ZM18.2168 49H17.2324V43.4102H15.3047C15.1992 44.8008 15.0527 45.9043 14.8652 46.7207C14.6777 47.5371 14.4336 48.1348 14.1328 48.5137C13.8359 48.8926 13.457 49.082 12.9961 49.082C12.7852 49.082 12.6172 49.0586 12.4922 49.0117V48.291C12.5781 48.3145 12.6758 48.3262 12.7852 48.3262C13.2344 48.3262 13.5918 47.8516 13.8574 46.9023C14.123 45.9531 14.3242 44.5117 14.4609 42.5781H18.2168V49ZM25.8281 45.7832C25.8281 46.8301 25.5645 47.6484 25.0371 48.2383C24.5098 48.8242 23.7812 49.1172 22.8516 49.1172C22.2773 49.1172 21.7676 48.9824 21.3223 48.7129C20.877 48.4434 20.5332 48.0566 20.291 47.5527C20.0488 47.0488 19.9277 46.459 19.9277 45.7832C19.9277 44.7363 20.1895 43.9219 20.7129 43.3398C21.2363 42.7539 21.9629 42.4609 22.8926 42.4609C23.791 42.4609 24.5039 42.7598 25.0312 43.3574C25.5625 43.9551 25.8281 44.7637 25.8281 45.7832ZM20.9355 45.7832C20.9355 46.6035 21.0996 47.2285 21.4277 47.6582C21.7559 48.0879 22.2383 48.3027 22.875 48.3027C23.5117 48.3027 23.9941 48.0898 24.3223 47.6641C24.6543 47.2344 24.8203 46.6074 24.8203 45.7832C24.8203 44.9668 24.6543 44.3477 24.3223 43.9258C23.9941 43.5 23.5078 43.2871 22.8633 43.2871C22.2266 43.2871 21.7461 43.4961 21.4219 43.9141C21.0977 44.332 20.9355 44.9551 20.9355 45.7832ZM28.5117 42.5781V45.2676H32.1094V42.5781H33.082V49H32.1094V46.1055H28.5117V49H27.5391V42.5781H28.5117ZM42.0059 42.5781H43.0723L40.3008 45.6777L43.3008 49H42.1641L39.2344 45.748V49H38.2617V42.5781H39.2344V45.7012L42.0059 42.5781ZM47.4844 49.1172C47.0664 49.1172 46.6836 49.041 46.3359 48.8887C45.9922 48.7324 45.7031 48.4941 45.4688 48.1738H45.3984C45.4453 48.5488 45.4688 48.9043 45.4688 49.2402V51.8828H44.4961V42.5781H45.2871L45.4219 43.457H45.4688C45.7188 43.1055 46.0098 42.8516 46.3418 42.6953C46.6738 42.5391 47.0547 42.4609 47.4844 42.4609C48.3359 42.4609 48.9922 42.752 49.4531 43.334C49.918 43.916 50.1504 44.7324 50.1504 45.7832C50.1504 46.8379 49.9141 47.6582 49.4414 48.2441C48.9727 48.8262 48.3203 49.1172 47.4844 49.1172ZM47.3438 43.2871C46.6875 43.2871 46.2129 43.4688 45.9199 43.832C45.627 44.1953 45.4766 44.7734 45.4688 45.5664V45.7832C45.4688 46.6855 45.6191 47.332 45.9199 47.7227C46.2207 48.1094 46.7031 48.3027 47.3672 48.3027C47.9219 48.3027 48.3555 48.0781 48.668 47.6289C48.9844 47.1797 49.1426 46.5605 49.1426 45.7715C49.1426 44.9707 48.9844 44.3574 48.668 43.9316C48.3555 43.502 47.9141 43.2871 47.3438 43.2871ZM55.8047 49L55.6113 48.0859H55.5645C55.2441 48.4883 54.9238 48.7617 54.6035 48.9062C54.2871 49.0469 53.8906 49.1172 53.4141 49.1172C52.7773 49.1172 52.2773 48.9531 51.9141 48.625C51.5547 48.2969 51.375 47.8301 51.375 47.2246C51.375 45.9277 52.4121 45.248 54.4863 45.1855L55.5762 45.1504V44.752C55.5762 44.248 55.4668 43.877 55.248 43.6387C55.0332 43.3965 54.6875 43.2754 54.2109 43.2754C53.6758 43.2754 53.0703 43.4395 52.3945 43.7676L52.0957 43.0234C52.4121 42.8516 52.7578 42.7168 53.1328 42.6191C53.5117 42.5215 53.8906 42.4727 54.2695 42.4727C55.0352 42.4727 55.6016 42.6426 55.9688 42.9824C56.3398 43.3223 56.5254 43.8672 56.5254 44.6172V49H55.8047ZM53.6074 48.3145C54.2129 48.3145 54.6875 48.1484 55.0312 47.8164C55.3789 47.4844 55.5527 47.0195 55.5527 46.4219V45.8418L54.5801 45.8828C53.8066 45.9102 53.248 46.0312 52.9043 46.2461C52.5645 46.457 52.3945 46.7871 52.3945 47.2363C52.3945 47.5879 52.5 47.8555 52.7109 48.0391C52.9258 48.2227 53.2246 48.3145 53.6074 48.3145ZM61.1016 49.1172C60.1719 49.1172 59.4512 48.832 58.9395 48.2617C58.4316 47.6875 58.1777 46.877 58.1777 45.8301C58.1777 44.7559 58.4355 43.9258 58.9512 43.3398C59.4707 42.7539 60.209 42.4609 61.166 42.4609C61.4746 42.4609 61.7832 42.4941 62.0918 42.5605C62.4004 42.627 62.6426 42.7051 62.8184 42.7949L62.5195 43.6211C62.3047 43.5352 62.0703 43.4648 61.8164 43.4102C61.5625 43.3516 61.3379 43.3223 61.1426 43.3223C59.8379 43.3223 59.1855 44.1543 59.1855 45.8184C59.1855 46.6074 59.3438 47.2129 59.6602 47.6348C59.9805 48.0566 60.4531 48.2676 61.0781 48.2676C61.6133 48.2676 62.1621 48.1523 62.7246 47.9219V48.7832C62.2949 49.0059 61.7539 49.1172 61.1016 49.1172ZM69.7969 45.7832C69.7969 46.8301 69.5332 47.6484 69.0059 48.2383C68.4785 48.8242 67.75 49.1172 66.8203 49.1172C66.2461 49.1172 65.7363 48.9824 65.291 48.7129C64.8457 48.4434 64.502 48.0566 64.2598 47.5527C64.0176 47.0488 63.8965 46.459 63.8965 45.7832C63.8965 44.7363 64.1582 43.9219 64.6816 43.3398C65.2051 42.7539 65.9316 42.4609 66.8613 42.4609C67.7598 42.4609 68.4727 42.7598 69 43.3574C69.5312 43.9551 69.7969 44.7637 69.7969 45.7832ZM64.9043 45.7832C64.9043 46.6035 65.0684 47.2285 65.3965 47.6582C65.7246 48.0879 66.207 48.3027 66.8438 48.3027C67.4805 48.3027 67.9629 48.0898 68.291 47.6641C68.623 47.2344 68.7891 46.6074 68.7891 45.7832C68.7891 44.9668 68.623 44.3477 68.291 43.9258C67.9629 43.5 67.4766 43.2871 66.832 43.2871C66.1953 43.2871 65.7148 43.4961 65.3906 43.9141C65.0664 44.332 64.9043 44.9551 64.9043 45.7832ZM75.8379 43.4102H73.752V49H72.7793V43.4102H70.7168V42.5781H75.8379V43.4102ZM78.082 45.2324H79.834C80.6504 45.2324 81.2539 45.3848 81.6445 45.6895C82.0391 45.9902 82.2363 46.4414 82.2363 47.043C82.2363 47.6875 82.0273 48.1758 81.6094 48.5078C81.1953 48.8359 80.584 49 79.7754 49H77.1094V42.5781H78.082V45.2324ZM84.2871 49H83.3145V42.5781H84.2871V49ZM78.082 46.0703V48.1855H79.7285C80.7598 48.1855 81.2754 47.8242 81.2754 47.1016C81.2754 46.7422 81.1562 46.4805 80.918 46.3164C80.6797 46.1523 80.2734 46.0703 79.6992 46.0703H78.082Z" fill="#4F4F4F"/>
</svg>
