<svg width="108" height="65" viewBox="0 0 108 65" fill="none" xmlns="http://www.w3.org/2000/svg">
<path d="M11.6352 44C9.45587 44 7.47974 43.4359 5.70676 42.3077C3.93379 41.2159 2.53018 39.6328 1.49595 37.5583C0.49865 35.4839 0 33.0637 0 30.2978C0 25.7122 1.16352 21.0538 3.49055 16.3226C5.85451 11.5914 8.92028 7.69727 12.6879 4.6402C16.4554 1.54673 20.3153 0 24.2676 0C25.782 0 27.0379 0.509512 28.0352 1.52854C27.4442 1.45575 26.9086 1.41936 26.4284 1.41936C23.3257 1.41936 20.1491 2.94789 16.8987 6.00496C13.6852 9.06203 11.0257 12.8834 8.92028 17.469C6.81487 22.0546 5.76217 26.44 5.76217 30.6253C5.76217 33.7552 6.3901 36.3391 7.64596 38.3772C8.93875 40.3788 10.9149 41.3797 13.5743 41.3797C16.7879 41.3797 19.7244 39.8693 22.3838 36.8486C25.0802 33.828 27.1856 30.0794 28.7 25.603C30.2514 21.0902 31.0271 16.7957 31.0271 12.7196C31.0271 10.7179 30.8239 8.91646 30.4176 7.31514C30.0482 5.67742 29.4203 4.85856 28.5338 4.85856C27.7581 4.85856 26.8532 5.51365 25.819 6.82382C24.8217 8.0976 23.8982 9.64434 23.0487 11.464C22.1991 13.2837 21.6266 14.9214 21.3311 16.3772C19.0041 15.9041 17.8406 14.8486 17.8406 13.2109C17.8406 11.9371 18.45 10.4632 19.6689 8.78908C20.8879 7.11497 22.3469 5.67742 24.046 4.47643C25.7451 3.23904 27.278 2.62035 28.6446 2.62035C30.6023 2.62035 31.969 3.83954 32.7446 6.27792C33.5203 8.7163 33.9082 11.5186 33.9082 14.6849C33.9082 20.5079 32.7446 25.6576 30.4176 30.134C28.0906 34.574 25.191 37.995 21.719 40.397C18.2838 42.799 14.9225 44 11.6352 44Z" fill="white"/>
<path d="M39.5747 41.7618C37.8756 41.7618 36.5458 41.2705 35.5855 40.2878C34.6251 39.3416 34.1449 37.9222 34.1449 36.0298C34.1449 34.6104 34.422 32.8089 34.976 30.6253C35.5301 28.4053 36.2688 26.0579 37.1922 23.5831C36.2319 23.4012 35.5855 23.2374 35.253 23.0918V21.3995C36.1395 21.5087 37.026 21.5997 37.9125 21.6725C39.5747 17.56 41.3476 14.0298 43.2314 11.0819C45.1521 8.134 46.7035 6.66005 47.8855 6.66005C48.2918 6.66005 48.6427 6.80563 48.9382 7.09677C49.2706 7.38792 49.4368 7.77006 49.4368 8.24318C49.4368 8.82548 49.1783 9.60794 48.6612 10.5906C48.144 11.5732 47.2945 13.0653 46.1125 15.067C44.4873 17.7601 43.213 20.0165 42.2895 21.8362C46.5373 21.8362 49.917 21.7089 52.4287 21.4541V23.2556C48.0702 23.6923 44.358 23.9107 41.2922 23.9107C39.3715 28.3871 38.4112 32.0447 38.4112 34.8834C38.4112 36.3755 38.6512 37.4309 39.1314 38.0496C39.6116 38.6683 40.3688 38.9777 41.403 38.9777C43.2499 38.9777 45.1337 38.1588 47.0544 36.5211C49.0121 34.847 50.7112 32.5906 52.1517 29.7519L52.9274 30.2978C51.413 33.6824 49.4553 36.4483 47.0544 38.5955C44.6535 40.7064 42.1603 41.7618 39.5747 41.7618Z" fill="white"/>
<path d="M55.5362 41.7618C53.8371 41.7618 52.5074 41.2705 51.547 40.2878C50.5866 39.3416 50.1065 37.9222 50.1065 36.0298C50.1065 34.6104 50.3835 32.8089 50.9375 30.6253C51.4916 28.4053 52.2303 26.0579 53.1538 23.5831C52.1934 23.4012 51.547 23.2374 51.2146 23.0918V21.3995C52.1011 21.5087 52.9876 21.5997 53.874 21.6725C55.5362 17.56 57.3092 14.0298 59.193 11.0819C61.1137 8.134 62.665 6.66005 63.847 6.66005C64.2533 6.66005 64.6042 6.80563 64.8997 7.09677C65.2322 7.38792 65.3984 7.77006 65.3984 8.24318C65.3984 8.82548 65.1398 9.60794 64.6227 10.5906C64.1056 11.5732 63.256 13.0653 62.0741 15.067C60.4488 17.7601 59.1745 20.0165 58.2511 21.8362C62.4988 21.8362 65.8786 21.7089 68.3903 21.4541V23.2556C64.0317 23.6923 60.3195 23.9107 57.2538 23.9107C55.3331 28.3871 54.3727 32.0447 54.3727 34.8834C54.3727 36.3755 54.6128 37.4309 55.093 38.0496C55.5731 38.6683 56.3303 38.9777 57.3646 38.9777C59.2114 38.9777 61.0952 38.1588 63.0159 36.5211C64.9736 34.847 66.6727 32.5906 68.1132 29.7519L68.8889 30.2978C67.3745 33.6824 65.4168 36.4483 63.0159 38.5955C60.615 40.7064 58.1218 41.7618 55.5362 41.7618Z" fill="white"/>
<path d="M72.8829 41.6526C70.5559 41.6526 68.7459 41.0339 67.4531 39.7965C66.1603 38.5591 65.514 36.976 65.514 35.0471C65.514 32.9363 66.2342 30.6617 67.6748 28.2233C69.1153 25.7486 70.9622 23.6923 73.2153 22.0546C75.4685 20.3805 77.6847 19.5434 79.864 19.5434C81.009 19.5434 81.9694 19.8346 82.745 20.4169C83.5207 20.9628 83.9086 21.8908 83.9086 23.201C83.9086 24.9479 83.2252 26.6038 81.8586 28.1687C80.4919 29.6973 78.7189 30.9529 76.5396 31.9355C74.3973 32.9181 72.1995 33.5368 69.9464 33.7916C69.8725 34.1555 69.8356 34.574 69.8356 35.0471C69.8356 35.9934 70.0941 36.9396 70.6113 37.8859C71.1653 38.8321 72.3288 39.3052 74.1018 39.3052C76.355 39.3052 78.645 38.4136 80.9721 36.6303C83.336 34.8106 85.2383 32.5542 86.6788 29.861L87.787 30.7345C86.3095 34.0099 84.1856 36.6485 81.4153 38.6501C78.682 40.6518 75.8378 41.6526 72.8829 41.6526ZM70.5559 31.7717C71.8856 31.6261 73.3631 31.0984 74.9883 30.1886C76.6504 29.2787 78.0541 28.1687 79.1991 26.8586C80.3441 25.512 80.9167 24.2018 80.9167 22.928C80.9167 22.5277 80.8428 22.2548 80.695 22.1092C80.5473 21.9636 80.3072 21.8908 79.9748 21.8908C78.9036 21.8908 77.7216 22.4003 76.4288 23.4194C75.173 24.402 74.0095 25.6576 72.9383 27.1861C71.8671 28.7146 71.073 30.2432 70.5559 31.7717Z" fill="white"/>
<path d="M95.5892 40.67C94.2225 40.67 93.1144 40.306 92.2648 39.5782C91.4153 38.8867 90.9905 37.9404 90.9905 36.7395C90.9905 36.048 91.1198 35.3019 91.3784 34.5012C91.6739 33.6642 92.0986 32.6634 92.6527 31.4988C93.1329 30.4797 93.5022 29.6245 93.7608 28.933C94.0193 28.2051 94.1486 27.5682 94.1486 27.0223C94.1486 25.6394 93.2252 24.4748 91.3784 23.5285C90.6396 25.3482 89.7716 27.1861 88.7743 29.0422C87.8139 30.8983 86.9459 32.4632 86.1702 33.737L85.3392 32.1538C87.0383 29.1696 88.5342 25.8759 89.827 22.273C89.4576 21.909 89.2729 21.4177 89.2729 20.799C89.2729 19.8528 89.5684 18.9611 90.1594 18.1241C90.7504 17.287 91.3229 16.8685 91.877 16.8685C92.2464 16.8685 92.5419 17.0868 92.7635 17.5236C93.022 17.9603 93.1513 18.3242 93.1513 18.6154C93.1513 18.761 93.059 19.0885 92.8743 19.598C92.7266 20.0711 92.6157 20.4169 92.5419 20.6352C92.5788 20.89 92.7266 21.1447 92.9851 21.3995C93.2437 21.6179 93.7239 21.9454 94.4257 22.3821C95.7185 23.2192 96.7157 24.038 97.4175 24.8387C98.1563 25.603 98.5257 26.6402 98.5257 27.9504C98.5257 28.751 98.3779 29.5517 98.0824 30.3524C97.8239 31.153 97.4176 32.1175 96.8635 33.2457C96.0509 34.847 95.6446 35.9934 95.6446 36.6849C95.6446 37.5219 96.1063 37.9404 97.0297 37.9404C98.1378 37.9404 99.3383 37.5037 100.631 36.6303C101.961 35.7568 103.161 34.7014 104.232 33.464C105.341 32.1902 106.153 31.0074 106.67 29.9156L108 30.8983C107.261 32.536 106.227 34.1009 104.897 35.5931C103.568 37.0852 102.072 38.3044 100.409 39.2506C98.7842 40.1969 97.1775 40.67 95.5892 40.67Z" fill="white"/>
<path d="M4.42691 61.7711C3.33726 61.7711 2.49255 61.4382 1.89278 60.7724C1.29759 60.102 1 59.1557 1 57.9335C1 56.6793 1.30217 55.7102 1.90652 55.0261C2.51544 54.342 3.38075 54 4.50245 54C4.86414 54 5.22584 54.0388 5.58753 54.1163C5.94922 54.1938 6.23308 54.285 6.4391 54.3899L6.08886 55.3545C5.83705 55.2541 5.56235 55.1721 5.26475 55.1082C4.96716 55.0398 4.7039 55.0056 4.47498 55.0056C2.94581 55.0056 2.18122 55.977 2.18122 57.9198C2.18122 58.841 2.36664 59.5479 2.73749 60.0404C3.11292 60.533 3.6669 60.7792 4.39944 60.7792C5.02668 60.7792 5.66994 60.6447 6.32922 60.3756V61.3812C5.8256 61.6412 5.1915 61.7711 4.42691 61.7711Z" fill="white"/>
<path d="M12.7504 61.6343L12.5238 60.5672H12.4688C12.0934 61.0369 11.718 61.3561 11.3425 61.5249C10.9717 61.6891 10.507 61.7711 9.94842 61.7711C9.20215 61.7711 8.61612 61.5796 8.19033 61.1965C7.76912 60.8134 7.55851 60.2684 7.55851 59.5616C7.55851 58.0475 8.77407 57.2539 11.2052 57.181L12.4826 57.1399V56.6748C12.4826 56.0864 12.3544 55.6532 12.098 55.375C11.8462 55.0922 11.441 54.9509 10.8824 54.9509C10.2552 54.9509 9.54553 55.1424 8.75347 55.5255L8.40322 54.6567C8.77407 54.4561 9.17926 54.2987 9.61878 54.1847C10.0629 54.0707 10.507 54.0137 10.9511 54.0137C11.8484 54.0137 12.5123 54.2121 12.9427 54.6088C13.3776 55.0056 13.5951 55.6418 13.5951 56.5174V61.6343H12.7504ZM10.1751 60.834C10.8847 60.834 11.441 60.6401 11.8439 60.2525C12.2513 59.8648 12.4551 59.3221 12.4551 58.6244V57.9471L11.3151 57.995C10.4085 58.0269 9.75384 58.1683 9.35095 58.4192C8.95263 58.6654 8.75347 59.0508 8.75347 59.5752C8.75347 59.9857 8.87709 60.2981 9.12432 60.5124C9.37613 60.7268 9.72637 60.834 10.1751 60.834Z" fill="white"/>
<path d="M21.5615 61.6343H20.4077V55.1082H18.1483C18.0247 56.7318 17.853 58.0201 17.6332 58.9733C17.4135 59.9264 17.1273 60.6242 16.7748 61.0665C16.4268 61.5089 15.9827 61.7301 15.4425 61.7301C15.1952 61.7301 14.9984 61.7027 14.8519 61.648V60.8066C14.9526 60.834 15.067 60.8476 15.1952 60.8476C15.7217 60.8476 16.1407 60.2935 16.452 59.1853C16.7633 58.0771 16.9991 56.3943 17.1594 54.1368H21.5615V61.6343Z" fill="white"/>
<path d="M30.4824 57.8787C30.4824 59.101 30.1734 60.0564 29.5553 60.745C28.9372 61.4291 28.0833 61.7711 26.9937 61.7711C26.3207 61.7711 25.7232 61.6138 25.2013 61.2991C24.6793 60.9845 24.2764 60.533 23.9926 59.9447C23.7087 59.3563 23.5668 58.6677 23.5668 57.8787C23.5668 56.6565 23.8735 55.7056 24.487 55.0261C25.1005 54.342 25.9521 54 27.0418 54C28.0948 54 28.9303 54.3489 29.5484 55.0466C30.1711 55.7444 30.4824 56.6884 30.4824 57.8787ZM24.748 57.8787C24.748 58.8364 24.9403 59.5661 25.3249 60.0678C25.7095 60.5694 26.2749 60.8203 27.0212 60.8203C27.7674 60.8203 28.3329 60.5717 28.7174 60.0746C29.1066 59.573 29.3012 58.841 29.3012 57.8787C29.3012 56.9256 29.1066 56.2027 28.7174 55.7102C28.3329 55.2131 27.7629 54.9646 27.0074 54.9646C26.2612 54.9646 25.698 55.2085 25.318 55.6965C24.938 56.1845 24.748 56.9119 24.748 57.8787Z" fill="white"/>
<path d="M33.6278 54.1368V57.2767H37.8444V54.1368H38.9844V61.6343H37.8444V58.255H33.6278V61.6343H32.4877V54.1368H33.6278Z" fill="white"/>
<path d="M49.4437 54.1368H50.6936L47.4453 57.7556L50.9615 61.6343H49.6292L46.1954 57.8377V61.6343H45.0554V54.1368H46.1954V57.783L49.4437 54.1368Z" fill="white"/>
<path d="M55.8649 61.7711C55.375 61.7711 54.9263 61.6822 54.5189 61.5044C54.116 61.3219 53.7772 61.0437 53.5025 60.6698H53.42C53.475 61.1076 53.5025 61.5226 53.5025 61.9148V65H52.3624V54.1368H53.2896L53.4475 55.1629H53.5025C53.7955 54.7525 54.1366 54.4561 54.5257 54.2736C54.9149 54.0912 55.3613 54 55.8649 54C56.863 54 57.6321 54.3398 58.1724 55.0193C58.7172 55.6988 58.9896 56.6519 58.9896 57.8787C58.9896 59.1101 58.7126 60.0678 58.1587 60.7519C57.6093 61.4314 56.8447 61.7711 55.8649 61.7711ZM55.7001 54.9646C54.9309 54.9646 54.3746 55.1766 54.0313 55.6007C53.6879 56.0249 53.5116 56.6998 53.5025 57.6256V57.8787C53.5025 58.9322 53.6787 59.687 54.0313 60.143C54.3838 60.5945 54.9492 60.8203 55.7275 60.8203C56.3777 60.8203 56.8859 60.558 57.2521 60.0336C57.623 59.5091 57.8084 58.7863 57.8084 57.865C57.8084 56.9301 57.623 56.2141 57.2521 55.717C56.8859 55.2154 56.3685 54.9646 55.7001 54.9646Z" fill="white"/>
<path d="M65.6168 61.6343L65.3902 60.5672H65.3353C64.9598 61.0369 64.5844 61.3561 64.209 61.5249C63.8381 61.6891 63.3734 61.7711 62.8149 61.7711C62.0686 61.7711 61.4826 61.5796 61.0568 61.1965C60.6356 60.8134 60.4249 60.2684 60.4249 59.5616C60.4249 58.0475 61.6405 57.2539 64.0716 57.181L65.349 57.1399V56.6748C65.349 56.0864 65.2208 55.6532 64.9644 55.375C64.7126 55.0922 64.3074 54.9509 63.7488 54.9509C63.1216 54.9509 62.412 55.1424 61.6199 55.5255L61.2697 54.6567C61.6405 54.4561 62.0457 54.2987 62.4852 54.1847C62.9293 54.0707 63.3734 54.0137 63.8175 54.0137C64.7149 54.0137 65.3787 54.2121 65.8091 54.6088C66.2441 55.0056 66.4615 55.6418 66.4615 56.5174V61.6343H65.6168ZM63.0415 60.834C63.7511 60.834 64.3074 60.6401 64.7103 60.2525C65.1178 59.8648 65.3215 59.3221 65.3215 58.6244V57.9471L64.1815 57.995C63.275 58.0269 62.6203 58.1683 62.2174 58.4192C61.8191 58.6654 61.6199 59.0508 61.6199 59.5752C61.6199 59.9857 61.7435 60.2981 61.9908 60.5124C62.2426 60.7268 62.5928 60.834 63.0415 60.834Z" fill="white"/>
<path d="M71.8251 61.7711C70.7354 61.7711 69.8907 61.4382 69.291 60.7724C68.6958 60.102 68.3982 59.1557 68.3982 57.9335C68.3982 56.6793 68.7004 55.7102 69.3047 55.0261C69.9136 54.342 70.7789 54 71.9006 54C72.2623 54 72.624 54.0388 72.9857 54.1163C73.3474 54.1938 73.6313 54.285 73.8373 54.3899L73.487 55.3545C73.2352 55.2541 72.9605 55.1721 72.6629 55.1082C72.3653 55.0398 72.1021 55.0056 71.8732 55.0056C70.344 55.0056 69.5794 55.977 69.5794 57.9198C69.5794 58.841 69.7648 59.5479 70.1357 60.0404C70.5111 60.533 71.0651 60.7792 71.7976 60.7792C72.4249 60.7792 73.0681 60.6447 73.7274 60.3756V61.3812C73.2238 61.6412 72.5897 61.7711 71.8251 61.7711Z" fill="white"/>
<path d="M82.0165 57.8787C82.0165 59.101 81.7075 60.0564 81.0894 60.745C80.4713 61.4291 79.6175 61.7711 78.5278 61.7711C77.8548 61.7711 77.2573 61.6138 76.7354 61.2991C76.2135 60.9845 75.8106 60.533 75.5267 59.9447C75.2428 59.3563 75.1009 58.6677 75.1009 57.8787C75.1009 56.6565 75.4077 55.7056 76.0212 55.0261C76.6347 54.342 77.4862 54 78.5759 54C79.6289 54 80.4645 54.3489 81.0826 55.0466C81.7052 55.7444 82.0165 56.6884 82.0165 57.8787ZM76.2821 57.8787C76.2821 58.8364 76.4744 59.5661 76.859 60.0678C77.2436 60.5694 77.809 60.8203 78.5553 60.8203C79.3016 60.8203 79.867 60.5717 80.2516 60.0746C80.6407 59.573 80.8353 58.841 80.8353 57.8787C80.8353 56.9256 80.6407 56.2027 80.2516 55.7102C79.867 55.2131 79.297 54.9646 78.5416 54.9646C77.7953 54.9646 77.2321 55.2085 76.8521 55.6965C76.4721 56.1845 76.2821 56.9119 76.2821 57.8787Z" fill="white"/>
<path d="M89.097 55.1082H86.6521V61.6343H85.5121V55.1082H83.0947V54.1368H89.097V55.1082Z" fill="white"/>
<path d="M91.7273 57.2357H93.7807C94.7375 57.2357 95.4449 57.4136 95.9027 57.7693C96.3652 58.1204 96.5964 58.6472 96.5964 59.3495C96.5964 60.102 96.3514 60.6721 95.8615 61.0597C95.3762 61.4428 94.6597 61.6343 93.712 61.6343H90.5872V54.1368H91.7273V57.2357ZM99 61.6343H97.86V54.1368H99V61.6343ZM91.7273 58.2139V60.6835H93.657C94.8657 60.6835 95.4701 60.2616 95.4701 59.4179C95.4701 58.9983 95.3304 58.6928 95.0512 58.5012C94.7719 58.3097 94.2957 58.2139 93.6227 58.2139H91.7273Z" fill="white"/>
</svg>
