<svg width="251" height="31" viewBox="0 0 251 31" fill="none" xmlns="http://www.w3.org/2000/svg">
<g clip-path="url(#clip0)">
<path d="M12.391 10.8436C13.3972 8.4587 15.6959 6.79228 18.3695 6.79228C21.9711 6.79228 24.565 9.87331 24.8911 13.5452C24.8911 13.5452 25.0671 14.4567 24.6797 16.0977C24.1522 18.3326 22.9121 20.3181 21.2402 21.8335L12.391 29.7288L3.69086 21.833C2.01895 20.3181 0.778861 18.3321 0.251311 16.0972C-0.136125 14.4562 0.0398915 13.5447 0.0398915 13.5447C0.365996 9.87281 2.95987 6.79178 6.56148 6.79178C9.23563 6.79178 11.3847 8.4587 12.391 10.8436Z" fill="#C03A2B"/>
<path d="M2.99179 14.8088C2.71605 14.8088 2.49316 14.5859 2.49316 14.3101C2.49316 11.5607 4.73002 9.32383 7.47946 9.32383C7.75521 9.32383 7.97809 9.54672 7.97809 9.82246C7.97809 10.0982 7.75521 10.3211 7.47946 10.3211C5.28001 10.3211 3.49042 12.1107 3.49042 14.3101C3.49042 14.5859 3.26754 14.8088 2.99179 14.8088Z" fill="#ED7161"/>
</g>
<path d="M185.851 29.726C184.381 29.726 183.047 29.3449 181.851 28.5827C180.654 27.8451 179.707 26.7756 179.009 25.3741C178.336 23.9726 178 22.3375 178 20.4689C178 17.3709 178.785 14.2237 180.355 11.0274C181.951 7.83105 184.019 5.20021 186.562 3.13488C189.104 1.04496 191.708 0 194.375 0C195.397 0 196.245 0.344222 196.918 1.03267C196.519 0.983492 196.157 0.958905 195.833 0.958905C193.74 0.958905 191.596 1.99157 189.403 4.0569C187.235 6.12223 185.44 8.7039 184.019 11.8019C182.599 14.8999 181.888 17.8627 181.888 20.6902C181.888 22.8047 182.312 24.5504 183.159 25.9273C184.032 27.2796 185.365 27.9557 187.16 27.9557C189.328 27.9557 191.31 26.9354 193.104 24.8946C194.924 22.8539 196.344 20.3214 197.366 17.2972C198.413 14.2483 198.937 11.347 198.937 8.59326C198.937 7.24096 198.799 6.02389 198.525 4.94204C198.276 3.83562 197.852 3.2824 197.254 3.2824C196.731 3.2824 196.12 3.72497 195.422 4.61012C194.749 5.47067 194.126 6.51563 193.553 7.745C192.98 8.97436 192.593 10.0808 192.394 11.0643C190.824 10.7446 190.039 10.0316 190.039 8.92518C190.039 8.06463 190.45 7.06884 191.272 5.93783C192.095 4.80681 193.079 3.83562 194.226 3.02424C195.372 2.18827 196.407 1.77029 197.329 1.77029C198.65 1.77029 199.572 2.59396 200.096 4.24131C200.619 5.88866 200.881 7.78188 200.881 9.92097C200.881 13.8549 200.096 17.334 198.525 20.3583C196.955 23.3579 194.999 25.6691 192.656 27.2919C190.338 28.9146 188.069 29.726 185.851 29.726Z" fill="#4F4F4F"/>
<path d="M204.704 28.2139C203.558 28.2139 202.661 27.882 202.013 27.2181C201.364 26.5789 201.04 25.6199 201.04 24.3414C201.04 23.3825 201.227 22.1654 201.601 20.6902C201.975 19.1904 202.474 17.6045 203.097 15.9326C202.449 15.8096 202.013 15.699 201.788 15.6006V14.4573C202.386 14.5311 202.985 14.5926 203.583 14.6417C204.704 11.8634 205.901 9.4784 207.172 7.48683C208.468 5.49526 209.515 4.49947 210.312 4.49947C210.587 4.49947 210.823 4.59782 211.023 4.79452C211.247 4.99122 211.359 5.24939 211.359 5.56902C211.359 5.96242 211.185 6.49104 210.836 7.1549C210.487 7.81876 209.914 8.82684 209.116 10.1791C208.019 11.9986 207.159 13.523 206.536 14.7524C209.403 14.7524 211.683 14.6663 213.378 14.4942V15.7113C210.437 16.0063 207.932 16.1538 205.863 16.1538C204.567 19.1781 203.919 21.6491 203.919 23.5669C203.919 24.575 204.081 25.288 204.405 25.706C204.729 26.124 205.24 26.333 205.938 26.333C207.184 26.333 208.456 25.7798 209.752 24.6733C211.073 23.5423 212.219 22.0179 213.191 20.1001L213.715 20.4689C212.693 22.7555 211.372 24.6242 209.752 26.0748C208.131 27.5009 206.449 28.2139 204.704 28.2139Z" fill="#4F4F4F"/>
<path d="M215.475 28.2139C214.328 28.2139 213.431 27.882 212.783 27.2181C212.135 26.5789 211.811 25.6199 211.811 24.3414C211.811 23.3825 211.998 22.1654 212.372 20.6902C212.746 19.1904 213.244 17.6045 213.867 15.9326C213.219 15.8096 212.783 15.699 212.559 15.6006V14.4573C213.157 14.5311 213.755 14.5926 214.353 14.6417C215.475 11.8634 216.671 9.4784 217.942 7.48683C219.239 5.49526 220.285 4.49947 221.083 4.49947C221.357 4.49947 221.594 4.59782 221.793 4.79452C222.018 4.99122 222.13 5.24939 222.13 5.56902C222.13 5.96242 221.955 6.49104 221.606 7.1549C221.257 7.81876 220.684 8.82684 219.887 10.1791C218.79 11.9986 217.93 13.523 217.307 14.7524C220.173 14.7524 222.454 14.6663 224.149 14.4942V15.7113C221.208 16.0063 218.703 16.1538 216.634 16.1538C215.338 19.1781 214.69 21.6491 214.69 23.5669C214.69 24.575 214.852 25.288 215.176 25.706C215.5 26.124 216.011 26.333 216.709 26.333C217.955 26.333 219.226 25.7798 220.522 24.6733C221.843 23.5423 222.99 22.0179 223.962 20.1001L224.485 20.4689C223.463 22.7555 222.142 24.6242 220.522 26.0748C218.902 27.5009 217.22 28.2139 215.475 28.2139Z" fill="#4F4F4F"/>
<path d="M227.18 28.1401C225.61 28.1401 224.389 27.7222 223.516 26.8862C222.644 26.0502 222.208 24.9807 222.208 23.6776C222.208 22.2515 222.694 20.7148 223.666 19.0674C224.638 17.3955 225.884 16.0063 227.405 14.8999C228.925 13.7689 230.42 13.2034 231.891 13.2034C232.664 13.2034 233.312 13.4001 233.835 13.7935C234.358 14.1623 234.62 14.7893 234.62 15.6744C234.62 16.8546 234.159 17.9733 233.237 19.0306C232.315 20.0632 231.118 20.9115 229.648 21.5753C228.202 22.2392 226.719 22.6572 225.199 22.8293C225.149 23.0752 225.124 23.3579 225.124 23.6776C225.124 24.3168 225.298 24.9561 225.647 25.5954C226.021 26.2346 226.806 26.5543 228.003 26.5543C229.523 26.5543 231.068 25.9519 232.639 24.7471C234.234 23.5177 235.517 21.9933 236.49 20.1739L237.237 20.764C236.24 22.9768 234.807 24.7594 232.938 26.1117C231.093 27.464 229.174 28.1401 227.18 28.1401ZM225.61 21.4647C226.507 21.3664 227.504 21.0098 228.601 20.3952C229.723 19.7805 230.67 19.0306 231.442 18.1454C232.215 17.2357 232.601 16.3505 232.601 15.49C232.601 15.2195 232.551 15.0351 232.452 14.9368C232.352 14.8384 232.19 14.7893 231.966 14.7893C231.243 14.7893 230.445 15.1335 229.573 15.8219C228.726 16.4858 227.94 17.334 227.218 18.3667C226.495 19.3994 225.959 20.432 225.61 21.4647Z" fill="#4F4F4F"/>
<path d="M242.502 27.4763C241.58 27.4763 240.832 27.2304 240.259 26.7387C239.686 26.2715 239.399 25.6322 239.399 24.8209C239.399 24.3537 239.486 23.8497 239.661 23.3087C239.86 22.7432 240.147 22.0671 240.521 21.2803C240.845 20.5918 241.094 20.0141 241.268 19.5469C241.443 19.0551 241.53 18.6249 241.53 18.2561C241.53 17.3217 240.907 16.5349 239.661 15.8957C239.162 17.125 238.576 18.3667 237.903 19.6207C237.255 20.8746 236.67 21.9319 236.146 22.7924L235.586 21.7229C236.732 19.7067 237.741 17.4816 238.614 15.0474C238.365 14.8015 238.24 14.4696 238.24 14.0516C238.24 13.4124 238.439 12.81 238.838 12.2445C239.237 11.679 239.623 11.3962 239.997 11.3962C240.246 11.3962 240.446 11.5437 240.595 11.8388C240.77 12.1338 240.857 12.3797 240.857 12.5764C240.857 12.6747 240.795 12.896 240.67 13.2403C240.57 13.5599 240.496 13.7935 240.446 13.941C240.471 14.1131 240.57 14.2852 240.745 14.4573C240.919 14.6048 241.243 14.8261 241.717 15.1212C242.589 15.6867 243.262 16.2399 243.736 16.7808C244.234 17.2972 244.484 17.9979 244.484 18.883C244.484 19.424 244.384 19.9649 244.184 20.5058C244.01 21.0467 243.736 21.6983 243.362 22.4605C242.814 23.5423 242.539 24.3168 242.539 24.784C242.539 25.3495 242.851 25.6322 243.474 25.6322C244.222 25.6322 245.032 25.3372 245.904 24.7471C246.802 24.157 247.612 23.444 248.334 22.608C249.082 21.7475 249.63 20.9484 249.979 20.2107L250.877 20.8746C250.378 21.981 249.68 23.0383 248.783 24.0464C247.886 25.0544 246.876 25.8781 245.755 26.5174C244.658 27.1567 243.574 27.4763 242.502 27.4763Z" fill="#4F4F4F"/>
<path d="M56.9004 28.3486H55.4766V25H46.5469V28.3486H45.123V23.6465H46.1162C47.0186 22.1289 47.7891 20.2832 48.4277 18.1094C49.0723 15.9355 49.4297 13.9492 49.5 12.1504H55.2744V23.6465H56.9004V28.3486ZM53.7803 23.6465V13.4951H50.8535C50.748 14.9131 50.3936 16.6182 49.79 18.6104C49.1865 20.5967 48.4834 22.2754 47.6807 23.6465H53.7803ZM67.166 20.1748C67.166 21.7451 66.7705 22.9727 65.9795 23.8574C65.1885 24.7363 64.0957 25.1758 62.7012 25.1758C61.8398 25.1758 61.0752 24.9736 60.4072 24.5693C59.7393 24.165 59.2236 23.585 58.8604 22.8291C58.4971 22.0732 58.3154 21.1885 58.3154 20.1748C58.3154 18.6045 58.708 17.3828 59.4932 16.5098C60.2783 15.6309 61.3682 15.1914 62.7627 15.1914C64.1104 15.1914 65.1797 15.6396 65.9707 16.5361C66.7676 17.4326 67.166 18.6455 67.166 20.1748ZM59.8271 20.1748C59.8271 21.4053 60.0732 22.3428 60.5654 22.9873C61.0576 23.6318 61.7812 23.9541 62.7363 23.9541C63.6914 23.9541 64.415 23.6348 64.9072 22.9961C65.4053 22.3516 65.6543 21.4111 65.6543 20.1748C65.6543 18.9502 65.4053 18.0215 64.9072 17.3887C64.415 16.75 63.6855 16.4307 62.7188 16.4307C61.7637 16.4307 61.043 16.7441 60.5566 17.3711C60.0703 17.998 59.8271 18.9326 59.8271 20.1748ZM74.7334 23.5938L75.0059 22.7764L75.3838 21.7393L77.9941 15.3848H79.8486V25H78.5566V17.0459L78.3809 17.5557L77.8711 18.9004L75.3838 25H74.1621L71.6748 18.8828C71.3643 18.0977 71.1504 17.4854 71.0332 17.0459V25H69.7324V15.3848H71.5166L74.0391 21.4932C74.291 22.1377 74.5225 22.8379 74.7334 23.5938ZM93.2607 15.3672H94.8604L90.7031 20.0166L95.2031 25H93.498L89.1035 20.1221V25H87.6445V15.3672H89.1035V20.0518L93.2607 15.3672ZM101.479 25.1758C100.852 25.1758 100.277 25.0615 99.7559 24.833C99.2402 24.5986 98.8066 24.2412 98.4551 23.7607H98.3496C98.4199 24.3232 98.4551 24.8564 98.4551 25.3604V29.3242H96.9961V15.3672H98.1826L98.3848 16.6855H98.4551C98.8301 16.1582 99.2666 15.7773 99.7646 15.543C100.263 15.3086 100.834 15.1914 101.479 15.1914C102.756 15.1914 103.74 15.6279 104.432 16.501C105.129 17.374 105.478 18.5986 105.478 20.1748C105.478 21.7568 105.123 22.9873 104.414 23.8662C103.711 24.7393 102.732 25.1758 101.479 25.1758ZM101.268 16.4307C100.283 16.4307 99.5713 16.7031 99.1318 17.248C98.6924 17.793 98.4668 18.6602 98.4551 19.8496V20.1748C98.4551 21.5283 98.6807 22.498 99.1318 23.084C99.583 23.6641 100.307 23.9541 101.303 23.9541C102.135 23.9541 102.785 23.6172 103.254 22.9434C103.729 22.2695 103.966 21.3408 103.966 20.1572C103.966 18.9561 103.729 18.0361 103.254 17.3975C102.785 16.7529 102.123 16.4307 101.268 16.4307ZM113.959 25L113.669 23.6289H113.599C113.118 24.2324 112.638 24.6426 112.157 24.8594C111.683 25.0703 111.088 25.1758 110.373 25.1758C109.418 25.1758 108.668 24.9297 108.123 24.4375C107.584 23.9453 107.314 23.2451 107.314 22.3369C107.314 20.3916 108.87 19.3721 111.981 19.2783L113.616 19.2256V18.6279C113.616 17.8721 113.452 17.3154 113.124 16.958C112.802 16.5947 112.283 16.4131 111.568 16.4131C110.766 16.4131 109.857 16.6592 108.844 17.1514L108.396 16.0352C108.87 15.7773 109.389 15.5752 109.951 15.4287C110.52 15.2822 111.088 15.209 111.656 15.209C112.805 15.209 113.654 15.4639 114.205 15.9736C114.762 16.4834 115.04 17.3008 115.04 18.4258V25H113.959ZM110.663 23.9717C111.571 23.9717 112.283 23.7227 112.799 23.2246C113.32 22.7266 113.581 22.0293 113.581 21.1328V20.2627L112.122 20.3242C110.962 20.3652 110.124 20.5469 109.608 20.8691C109.099 21.1855 108.844 21.6807 108.844 22.3545C108.844 22.8818 109.002 23.2832 109.318 23.5586C109.641 23.834 110.089 23.9717 110.663 23.9717ZM121.904 25.1758C120.51 25.1758 119.429 24.748 118.661 23.8926C117.899 23.0312 117.519 21.8154 117.519 20.2451C117.519 18.6338 117.905 17.3887 118.679 16.5098C119.458 15.6309 120.565 15.1914 122.001 15.1914C122.464 15.1914 122.927 15.2412 123.39 15.3408C123.853 15.4404 124.216 15.5576 124.479 15.6924L124.031 16.9316C123.709 16.8027 123.357 16.6973 122.977 16.6152C122.596 16.5273 122.259 16.4834 121.966 16.4834C120.009 16.4834 119.03 17.7314 119.03 20.2275C119.03 21.4111 119.268 22.3193 119.742 22.9521C120.223 23.585 120.932 23.9014 121.869 23.9014C122.672 23.9014 123.495 23.7285 124.339 23.3828V24.6748C123.694 25.0088 122.883 25.1758 121.904 25.1758ZM134.947 20.1748C134.947 21.7451 134.552 22.9727 133.761 23.8574C132.97 24.7363 131.877 25.1758 130.482 25.1758C129.621 25.1758 128.856 24.9736 128.188 24.5693C127.521 24.165 127.005 23.585 126.642 22.8291C126.278 22.0732 126.097 21.1885 126.097 20.1748C126.097 18.6045 126.489 17.3828 127.274 16.5098C128.06 15.6309 129.149 15.1914 130.544 15.1914C131.892 15.1914 132.961 15.6396 133.752 16.5361C134.549 17.4326 134.947 18.6455 134.947 20.1748ZM127.608 20.1748C127.608 21.4053 127.854 22.3428 128.347 22.9873C128.839 23.6318 129.562 23.9541 130.518 23.9541C131.473 23.9541 132.196 23.6348 132.688 22.9961C133.187 22.3516 133.436 21.4111 133.436 20.1748C133.436 18.9502 133.187 18.0215 132.688 17.3887C132.196 16.75 131.467 16.4307 130.5 16.4307C129.545 16.4307 128.824 16.7441 128.338 17.3711C127.852 17.998 127.608 18.9326 127.608 20.1748ZM144.009 16.6152H140.88V25H139.421V16.6152H136.327V15.3672H144.009V16.6152ZM147.375 19.3486H150.003C151.228 19.3486 152.133 19.5771 152.719 20.0342C153.311 20.4854 153.606 21.1621 153.606 22.0645C153.606 23.0312 153.293 23.7637 152.666 24.2617C152.045 24.7539 151.128 25 149.915 25H145.916V15.3672H147.375V19.3486ZM156.683 25H155.224V15.3672H156.683V25ZM147.375 20.6055V23.7783H149.845C151.392 23.7783 152.165 23.2363 152.165 22.1523C152.165 21.6133 151.986 21.2207 151.629 20.9746C151.271 20.7285 150.662 20.6055 149.801 20.6055H147.375Z" fill="#4F4F4F"/>
<defs>
<clipPath id="clip0">
<rect width="24.9315" height="24.9315" fill="white" transform="translate(0 5.79453)"/>
</clipPath>
</defs>
</svg>
