<svg width="70" height="70" viewBox="0 0 70 70" fill="none" xmlns="http://www.w3.org/2000/svg">
<g filter="url(#filter0_d)">
<rect x="10" y="10" width="50" height="50" rx="25" fill="white"/>
</g>
<path d="M43.952 33.6048C43.6676 31.687 42.7927 29.9489 41.4219 28.578C40.051 27.2073 38.3129 26.3323 36.3952 26.048C35.5221 25.9185 34.6369 25.9185 33.7638 26.048C31.3938 26.3994 29.3026 27.6527 27.8754 29.577C26.4481 31.5013 25.8555 33.8663 26.207 36.2362C26.5585 38.6061 27.8118 40.6973 29.7361 42.1246C31.2983 43.2833 33.1506 43.8917 35.0605 43.8917C35.5033 43.8917 35.9492 43.859 36.3951 43.7929C38.7651 43.4414 40.8563 42.1881 42.2836 40.2638C43.7109 38.3396 44.3035 35.9747 43.952 33.6048ZM35.9212 40.5962C34.4051 40.8214 32.8923 40.4421 31.6612 39.529C30.4302 38.616 29.6285 37.2782 29.4037 35.7622C29.1789 34.2462 29.5579 32.7333 30.4709 31.5023C31.384 30.2712 32.7218 29.4695 34.2379 29.2447C34.5171 29.2033 34.7983 29.1826 35.0794 29.1826C35.3606 29.1826 35.6419 29.2033 35.9211 29.2448C38.4391 29.6181 40.3819 31.5608 40.7553 34.0789C41.2194 37.2084 39.0508 40.1322 35.9212 40.5962Z" fill="#4F4F4F"/>
<path d="M46.2538 23.7462C45.9529 23.4453 45.5364 23.2729 45.1112 23.2729C44.6861 23.2729 44.2696 23.4452 43.9686 23.7462C43.6678 24.0471 43.4954 24.4629 43.4954 24.8887C43.4954 25.3146 43.6678 25.7304 43.9686 26.0313C44.2696 26.3322 44.6861 26.5046 45.1112 26.5046C45.5364 26.5046 45.9529 26.3323 46.2538 26.0313C46.5547 25.7304 46.7271 25.3139 46.7271 24.8887C46.7271 24.4635 46.5547 24.047 46.2538 23.7462Z" fill="#4F4F4F"/>
<defs>
<filter id="filter0_d" x="0" y="0" width="70" height="70" filterUnits="userSpaceOnUse" color-interpolation-filters="sRGB">
<feFlood flood-opacity="0" result="BackgroundImageFix"/>
<feColorMatrix in="SourceAlpha" type="matrix" values="0 0 0 0 0 0 0 0 0 0 0 0 0 0 0 0 0 0 127 0"/>
<feOffset/>
<feGaussianBlur stdDeviation="5"/>
<feColorMatrix type="matrix" values="0 0 0 0 0.921569 0 0 0 0 0.341176 0 0 0 0 0.341176 0 0 0 0.22 0"/>
<feBlend mode="normal" in2="BackgroundImageFix" result="effect1_dropShadow"/>
<feBlend mode="normal" in="SourceGraphic" in2="effect1_dropShadow" result="shape"/>
</filter>
</defs>
</svg>
