<svg width="70" height="70" viewBox="0 0 70 70" fill="none" xmlns="http://www.w3.org/2000/svg">
<g filter="url(#filter0_d)">
<rect x="10" y="10" width="50" height="50" rx="25" fill="white"/>
</g>
<path d="M39.125 24H30.875C27.0786 24 24 27.0786 24 30.875V39.125C24 42.9214 27.0786 46 30.875 46H39.125C42.9214 46 46 42.9214 46 39.125V30.875C46 27.0786 42.9214 24 39.125 24ZM43.9375 39.125C43.9375 41.7787 41.7787 43.9375 39.125 43.9375H30.875C28.2213 43.9375 26.0625 41.7787 26.0625 39.125V30.875C26.0625 28.2213 28.2213 26.0625 30.875 26.0625H39.125C41.7787 26.0625 43.9375 28.2213 43.9375 30.875V39.125Z" fill="#4F4F4F"/>
<path d="M35 29.5C31.9626 29.5 29.5 31.9626 29.5 35C29.5 38.0374 31.9626 40.5 35 40.5C38.0374 40.5 40.5 38.0374 40.5 35C40.5 31.9626 38.0374 29.5 35 29.5ZM35 38.4375C33.1052 38.4375 31.5625 36.8948 31.5625 35C31.5625 33.1039 33.1052 31.5625 35 31.5625C36.8948 31.5625 38.4375 33.1039 38.4375 35C38.4375 36.8948 36.8948 38.4375 35 38.4375Z" fill="#4F4F4F"/>
<path d="M40.9126 29.8204C41.3173 29.8204 41.6454 29.4923 41.6454 29.0875C41.6454 28.6828 41.3173 28.3546 40.9126 28.3546C40.5078 28.3546 40.1797 28.6828 40.1797 29.0875C40.1797 29.4923 40.5078 29.8204 40.9126 29.8204Z" fill="#4F4F4F"/>
<defs>
<filter id="filter0_d" x="0" y="0" width="70" height="70" filterUnits="userSpaceOnUse" color-interpolation-filters="sRGB">
<feFlood flood-opacity="0" result="BackgroundImageFix"/>
<feColorMatrix in="SourceAlpha" type="matrix" values="0 0 0 0 0 0 0 0 0 0 0 0 0 0 0 0 0 0 127 0"/>
<feOffset/>
<feGaussianBlur stdDeviation="5"/>
<feColorMatrix type="matrix" values="0 0 0 0 0.898039 0 0 0 0 0.898039 0 0 0 0 0.898039 0 0 0 1 0"/>
<feBlend mode="normal" in2="BackgroundImageFix" result="effect1_dropShadow"/>
<feBlend mode="normal" in="SourceGraphic" in2="effect1_dropShadow" result="shape"/>
</filter>
</defs>
</svg>
