<svg width="21" height="21" viewBox="0 0 21 21" fill="none" xmlns="http://www.w3.org/2000/svg">
<path d="M17.952 10.6048C17.6676 8.68702 16.7927 6.94889 15.4219 5.57803C14.051 4.20725 12.3129 3.33225 10.3952 3.04796C9.5221 2.9185 8.63686 2.9185 7.76382 3.04796C5.39382 3.39944 3.30264 4.65272 1.87538 6.57702C0.448111 8.50132 -0.144467 10.8663 0.207018 13.2362C0.558502 15.6061 1.81178 17.6973 3.73608 19.1246C5.29827 20.2833 7.15061 20.8917 9.06053 20.8917C9.50327 20.8917 9.94921 20.859 10.3951 20.7929C12.7651 20.4414 14.8563 19.1881 16.2836 17.2638C17.7109 15.3396 18.3035 12.9747 17.952 10.6048ZM9.92116 17.5962C8.40514 17.8214 6.89225 17.4421 5.66124 16.529C4.43022 15.616 3.6285 14.2782 3.40374 12.7622C3.17889 11.2462 3.55788 9.73327 4.47092 8.50225C5.38405 7.27124 6.72178 6.46952 8.23788 6.24467C8.5171 6.20327 8.79827 6.18257 9.07944 6.18257C9.36061 6.18257 9.64186 6.20327 9.92108 6.24475C12.4391 6.61811 14.3819 8.56077 14.7553 11.0789C15.2194 14.2084 13.0508 17.1322 9.92116 17.5962Z" fill="#4F4F4F"/>
<path d="M20.2538 0.746169C19.9529 0.44531 19.5364 0.272888 19.1112 0.272888C18.6861 0.272888 18.2696 0.445232 17.9686 0.746169C17.6678 1.04711 17.4954 1.46289 17.4954 1.88875C17.4954 2.31461 17.6678 2.73039 17.9686 3.03133C18.2696 3.33218 18.6861 3.50461 19.1112 3.50461C19.5364 3.50461 19.9529 3.33226 20.2538 3.03133C20.5547 2.73039 20.7271 2.3139 20.7271 1.88875C20.7271 1.46351 20.5547 1.04703 20.2538 0.746169Z" fill="#4F4F4F"/>
</svg>
