<svg width="150" height="33" viewBox="0 0 150 33" fill="none" xmlns="http://www.w3.org/2000/svg">
<rect width="150" height="33" rx="5" fill="#2F80ED"/>
<path d="M39.8867 21H38.1641V12.4414H33.7822V21H32.0596V11.0469H39.8867V21ZM41.5068 17.2334C41.5068 16.5088 41.6504 15.8571 41.9375 15.2783C42.2246 14.695 42.6279 14.2484 43.1475 13.9385C43.667 13.624 44.264 13.4668 44.9385 13.4668C45.9365 13.4668 46.7454 13.7881 47.3652 14.4307C47.9896 15.0732 48.3268 15.9255 48.377 16.9873L48.3838 17.377C48.3838 18.1061 48.2425 18.7578 47.96 19.332C47.682 19.9062 47.2809 20.3506 46.7568 20.665C46.2373 20.9795 45.6357 21.1367 44.9521 21.1367C43.9085 21.1367 43.0723 20.7904 42.4434 20.0977C41.819 19.4004 41.5068 18.473 41.5068 17.3154V17.2334ZM43.168 17.377C43.168 18.138 43.3252 18.735 43.6396 19.168C43.9541 19.5964 44.3916 19.8105 44.9521 19.8105C45.5127 19.8105 45.9479 19.5918 46.2578 19.1543C46.5723 18.7168 46.7295 18.0765 46.7295 17.2334C46.7295 16.486 46.5677 15.8936 46.2441 15.4561C45.9251 15.0186 45.4899 14.7998 44.9385 14.7998C44.3962 14.7998 43.9655 15.0163 43.6465 15.4492C43.3275 15.8776 43.168 16.5202 43.168 17.377ZM49.3271 19.6738C49.7874 19.1589 50.0951 18.6712 50.25 18.2109C50.4095 17.7461 50.5052 17.1536 50.5371 16.4336L50.6328 13.6035H55.7666V19.6738H56.792V23.2012H55.1377V21H50.3936V23.2012H48.7119L48.7188 19.6738H49.3271ZM51.2754 19.6738H54.1123V15.0322H52.2461L52.1982 16.4473C52.1344 17.8053 51.8268 18.8809 51.2754 19.6738ZM64.127 21H62.4658V14.9434H59.5811V21H57.9199V13.6035H64.127V21ZM70.5117 13.6035H72.166V21H70.5117V16.0645L67.6133 21H65.959V13.6035H67.6133V18.5391L70.5117 13.6035ZM76.9717 19.8105C77.3864 19.8105 77.7305 19.6898 78.0039 19.4482C78.2773 19.2067 78.4232 18.9082 78.4414 18.5527H80.0068C79.9886 19.013 79.8451 19.4437 79.5762 19.8447C79.3073 20.2412 78.9427 20.5557 78.4824 20.7881C78.0221 21.0205 77.5254 21.1367 76.9922 21.1367C75.9577 21.1367 75.1374 20.8018 74.5312 20.1318C73.9251 19.4619 73.6221 18.5368 73.6221 17.3564V17.1855C73.6221 16.0599 73.9229 15.1598 74.5244 14.4854C75.126 13.8063 75.9463 13.4668 76.9854 13.4668C77.8649 13.4668 78.5804 13.7243 79.1318 14.2393C79.6878 14.7497 79.9795 15.4219 80.0068 16.2559H78.4414C78.4232 15.832 78.2773 15.4834 78.0039 15.21C77.735 14.9365 77.391 14.7998 76.9717 14.7998C76.4339 14.7998 76.0192 14.9958 75.7275 15.3877C75.4359 15.7751 75.2878 16.3652 75.2832 17.1582V17.4248C75.2832 18.2269 75.4268 18.8262 75.7139 19.2227C76.0055 19.6146 76.4248 19.8105 76.9717 19.8105ZM85.6807 21C85.6077 20.8587 85.5439 20.6286 85.4893 20.3096C84.9606 20.861 84.3135 21.1367 83.5479 21.1367C82.805 21.1367 82.1989 20.9248 81.7295 20.501C81.2601 20.0771 81.0254 19.5531 81.0254 18.9287C81.0254 18.1403 81.3171 17.5365 81.9004 17.1172C82.4883 16.6934 83.3268 16.4814 84.416 16.4814H85.4346V15.9961C85.4346 15.6133 85.3275 15.3079 85.1133 15.0801C84.8991 14.8477 84.5732 14.7314 84.1357 14.7314C83.7575 14.7314 83.4476 14.8271 83.2061 15.0186C82.9645 15.2054 82.8438 15.4447 82.8438 15.7363H81.1826C81.1826 15.3307 81.3171 14.9525 81.5859 14.6016C81.8548 14.2461 82.2194 13.9681 82.6797 13.7676C83.1445 13.5671 83.6618 13.4668 84.2314 13.4668C85.0973 13.4668 85.7878 13.6855 86.3027 14.123C86.8177 14.556 87.082 15.1667 87.0957 15.9551V19.291C87.0957 19.9564 87.1891 20.4873 87.376 20.8838V21H85.6807ZM83.8555 19.8037C84.1836 19.8037 84.4912 19.724 84.7783 19.5645C85.07 19.4049 85.2887 19.1908 85.4346 18.9219V17.5273H84.5391C83.9238 17.5273 83.4613 17.6344 83.1514 17.8486C82.8415 18.0628 82.6865 18.3659 82.6865 18.7578C82.6865 19.0768 82.7913 19.332 83.001 19.5234C83.2152 19.7103 83.5 19.8037 83.8555 19.8037ZM94.5469 14.9229H92.1475V21H90.4863V14.9229H88.1143V13.6035H94.5469V14.9229ZM97.4453 15.9551H99.0723C99.6784 15.9551 100.207 16.0599 100.658 16.2695C101.109 16.4792 101.451 16.7731 101.684 17.1514C101.921 17.5296 102.039 17.9694 102.039 18.4707C102.039 19.2318 101.77 19.8424 101.232 20.3027C100.695 20.763 99.9792 20.9954 99.0859 21H95.7842V13.6035H97.4453V15.9551ZM97.4453 17.2881V19.6738H99.0654C99.471 19.6738 99.79 19.5736 100.022 19.373C100.259 19.168 100.378 18.8786 100.378 18.5049C100.378 18.1312 100.262 17.8372 100.029 17.623C99.8014 17.4043 99.4915 17.2926 99.0996 17.2881H97.4453ZM106.407 19.8105C106.822 19.8105 107.166 19.6898 107.439 19.4482C107.713 19.2067 107.859 18.9082 107.877 18.5527H109.442C109.424 19.013 109.281 19.4437 109.012 19.8447C108.743 20.2412 108.378 20.5557 107.918 20.7881C107.458 21.0205 106.961 21.1367 106.428 21.1367C105.393 21.1367 104.573 20.8018 103.967 20.1318C103.361 19.4619 103.058 18.5368 103.058 17.3564V17.1855C103.058 16.0599 103.358 15.1598 103.96 14.4854C104.562 13.8063 105.382 13.4668 106.421 13.4668C107.3 13.4668 108.016 13.7243 108.567 14.2393C109.123 14.7497 109.415 15.4219 109.442 16.2559H107.877C107.859 15.832 107.713 15.4834 107.439 15.21C107.171 14.9365 106.826 14.7998 106.407 14.7998C105.869 14.7998 105.455 14.9958 105.163 15.3877C104.871 15.7751 104.723 16.3652 104.719 17.1582V17.4248C104.719 18.2269 104.862 18.8262 105.149 19.2227C105.441 19.6146 105.86 19.8105 106.407 19.8105ZM116.62 13.6035V21H114.966V18.2861H113.414L111.835 21H110.112L111.855 18.0127C111.4 17.8213 111.049 17.5479 110.803 17.1924C110.561 16.8369 110.44 16.429 110.44 15.9688C110.44 15.2806 110.705 14.7178 111.233 14.2803C111.767 13.8382 112.484 13.6126 113.387 13.6035H116.62ZM112.102 16.0098C112.102 16.3197 112.215 16.5726 112.443 16.7686C112.676 16.96 112.972 17.0557 113.332 17.0557H114.966V14.9229H113.435C113.029 14.9229 112.705 15.0254 112.464 15.2305C112.222 15.4355 112.102 15.6953 112.102 16.0098Z" fill="white"/>
</svg>
