<svg width="40" height="40" viewBox="0 0 40 40" fill="none" xmlns="http://www.w3.org/2000/svg">
<g clip-path="url(#clip0)">
<path d="M19.88 8.1008C21.4944 4.2744 25.1824 1.6008 29.472 1.6008C35.2504 1.6008 39.412 6.544 39.9352 12.4352C39.9352 12.4352 40.2176 13.8976 39.596 16.5304C38.7496 20.116 36.76 23.3016 34.0776 25.7328L19.88 38.4L5.9216 25.732C3.2392 23.3016 1.2496 20.1152 0.403202 16.5296C-0.218398 13.8968 0.0640017 12.4344 0.0640017 12.4344C0.587202 6.5432 4.7488 1.6 10.5272 1.6C14.8176 1.6 18.2656 4.2744 19.88 8.1008Z" fill="#C03A2B"/>
<path d="M4.8 14.4624C4.3576 14.4624 4 14.1048 4 13.6624C4 9.2512 7.5888 5.6624 12 5.6624C12.4424 5.6624 12.8 6.02 12.8 6.4624C12.8 6.9048 12.4424 7.2624 12 7.2624C8.4712 7.2624 5.6 10.1336 5.6 13.6624C5.6 14.1048 5.2424 14.4624 4.8 14.4624Z" fill="#ED7161"/>
</g>
<defs>
<clipPath id="clip0">
<rect width="40" height="40" fill="white"/>
</clipPath>
</defs>
</svg>
