<svg width="86" height="51" viewBox="0 0 86 51" fill="none" xmlns="http://www.w3.org/2000/svg">
<path d="M9.16146 34.8868C7.42394 34.8868 5.84438 34.4111 4.50175 33.5389C3.08015 32.6667 1.97445 31.3981 1.18467 29.8123C0.394891 28.1473 0 26.2444 0 24.0243C0 20.3771 0.947738 16.7298 2.76423 12.924C4.65971 9.19743 7.02905 6.10519 10.0302 3.64726C13.0314 1.18932 16.0326 0 19.1917 0C20.3764 0 21.4031 0.396441 22.1929 1.18932C21.719 1.11003 21.3241 1.11003 20.9292 1.11003C18.4809 1.11003 15.9536 2.29936 13.4263 4.75729C10.899 7.21522 8.76657 10.2282 7.10803 13.8754C5.44949 17.5227 4.58073 21.0114 4.58073 24.3415C4.58073 26.7994 5.0546 28.8609 6.08132 30.5259C7.10803 32.1117 8.6876 32.9046 10.741 32.9046C13.2683 32.9046 15.6377 31.7153 17.6911 29.3366C19.8235 26.958 21.4821 23.945 22.6667 20.4563C23.9304 16.8884 24.4832 13.479 24.4832 10.2282C24.4832 8.64241 24.3253 7.21522 24.0094 5.94661C23.6934 4.678 23.2196 3.96441 22.5088 3.96441C21.8769 3.96441 21.1661 4.51942 20.3764 5.55017C19.5866 6.58092 18.8758 7.77024 18.165 9.19743C17.5331 10.6246 17.0593 11.9725 16.8223 13.0825C15.0058 12.6861 14.0581 11.8932 14.0581 10.5453C14.0581 9.51458 14.532 8.40454 15.4797 7.05665C16.4275 5.70875 17.6121 4.59871 18.9548 3.64726C20.2974 2.53722 21.4821 2.06149 22.5877 2.06149C24.1673 2.06149 25.194 3.01295 25.8258 4.99515C26.4577 6.89807 26.7736 9.11814 26.7736 11.6554C26.7736 16.2541 25.8258 20.3771 24.0094 23.8657C22.1929 27.3544 19.9025 30.1295 17.1383 32.0324C14.374 33.9353 11.7677 34.8868 9.16146 34.8868Z" fill="#5A5A5A"/>
<path d="M31.445 33.2642C30.1021 33.2642 29.0751 32.8654 28.2852 32.068C27.4952 31.3503 27.1792 30.1541 27.1792 28.6389C27.1792 27.5225 27.4162 26.0871 27.8112 24.3327C28.2852 22.5783 28.8381 20.6644 29.5491 18.7505C28.7591 18.591 28.2852 18.5113 28.0482 18.3518V16.9961C28.7591 17.0759 29.4701 17.1556 30.1811 17.2354C31.524 13.9658 32.867 11.1747 34.3679 8.78238C35.8689 6.46977 37.1328 5.27359 38.0808 5.27359C38.3968 5.27359 38.7128 5.35333 38.9498 5.59257C39.1867 5.83181 39.3447 6.15079 39.3447 6.46977C39.3447 6.94824 39.1077 7.5862 38.7128 8.30391C38.3178 9.10136 37.6068 10.2975 36.7378 11.8924C35.4739 14.0456 34.4469 15.8 33.736 17.3151C37.0538 17.3151 39.7397 17.2354 41.7147 16.9961V18.4315C38.2388 18.7505 35.3159 18.9898 32.946 18.9898C31.445 22.5783 30.6551 25.4491 30.6551 27.7617C30.6551 28.9579 30.8131 29.7554 31.208 30.3136C31.603 30.7921 32.156 31.0313 33.025 31.0313C34.4469 31.0313 35.9479 30.3933 37.5278 29.0377C39.1077 27.682 40.4507 25.9276 41.5567 23.615L42.1886 24.0137C41.0037 26.7251 39.4237 28.9579 37.5278 30.6326C35.4739 32.4667 33.499 33.2642 31.445 33.2642Z" fill="#5A5A5A"/>
<path d="M44.1359 33.2642C42.7566 33.2642 41.7019 32.8654 40.8906 32.068C40.0793 31.3503 39.7548 30.1541 39.7548 28.6389C39.7548 27.5225 39.9982 26.0871 40.4038 24.3327C40.8906 22.5783 41.4585 20.6644 42.1887 18.7505C41.3774 18.591 40.8906 18.5113 40.6472 18.3518V16.9961C41.3774 17.0759 42.1076 17.1556 42.8378 17.2354C44.217 13.9658 45.5963 11.1747 47.1378 8.78238C48.6793 6.46977 49.9774 5.27359 50.951 5.27359C51.2755 5.27359 51.6 5.35333 51.8434 5.59257C52.0868 5.83181 52.2491 6.15079 52.2491 6.46977C52.2491 6.94824 52.0057 7.5862 51.6 8.30391C51.1944 9.10136 50.4642 10.2975 49.5717 11.8924C48.2736 14.0456 47.2189 15.8 46.4887 17.3151C49.8963 17.3151 52.6548 17.2354 54.6831 16.9961V18.4315C51.1133 18.7505 48.1114 18.9898 45.6774 18.9898C44.1359 22.5783 43.3246 25.4491 43.3246 27.7617C43.3246 28.9579 43.4868 29.7554 43.8925 30.3136C44.2982 30.7921 44.8661 31.0313 45.7585 31.0313C47.2189 31.0313 48.7604 30.3933 50.3831 29.0377C52.0057 27.682 53.3849 25.9276 54.5208 23.615L55.1699 24.0137C53.9529 26.7251 52.3302 28.9579 50.3831 30.6326C48.2736 32.4667 46.2453 33.2642 44.1359 33.2642Z" fill="#5A5A5A"/>
<path d="M57.7675 33.2642C55.9266 33.2642 54.4859 32.7796 53.4453 31.7296C52.4048 30.6797 51.9246 29.4682 51.9246 27.9337C51.9246 26.2376 52.4848 24.38 53.6855 22.4417C54.806 20.4225 56.3268 18.8072 58.0877 17.4342C59.9286 16.0612 61.6895 15.4151 63.3704 15.4151C64.2508 15.4151 65.0512 15.6574 65.6915 16.142C66.3319 16.5458 66.652 17.3535 66.652 18.4034C66.652 19.7764 66.0917 21.1494 64.9712 22.4417C63.8506 23.6531 62.4899 24.7031 60.729 25.5107C59.0482 26.3184 57.2873 26.803 55.4463 27.0453C55.3663 27.3683 55.3663 27.6914 55.3663 28.0952C55.3663 28.8221 55.6064 29.6297 56.0066 30.3566C56.4869 31.0835 57.3673 31.4873 58.8081 31.4873C60.649 31.4873 62.4099 30.7604 64.3309 29.3067C66.2518 27.8529 67.7726 25.9953 68.8932 23.8147L69.7736 24.5415C68.573 27.126 66.8121 29.2259 64.651 30.8412C62.4099 32.4565 60.1687 33.2642 57.7675 33.2642ZM55.9266 25.2684C56.9671 25.1877 58.1677 24.7031 59.4484 23.9762C60.8091 23.2493 61.9296 22.3609 62.8101 21.3109C63.6905 20.261 64.1708 19.1303 64.1708 18.1611C64.1708 17.838 64.0907 17.5958 64.0107 17.515C63.9307 17.4342 63.6905 17.3535 63.4504 17.3535C62.57 17.3535 61.6095 17.7573 60.649 18.5649C59.6085 19.3726 58.728 20.3418 57.8476 21.634C56.9671 22.9262 56.3268 24.057 55.9266 25.2684Z" fill="#5A5A5A"/>
<path d="M75.9841 32.4528C74.8533 32.4528 73.9648 32.1337 73.3186 31.5753C72.6724 31.0169 72.2685 30.2989 72.2685 29.3416C72.2685 28.7832 72.3493 28.2248 72.5916 27.5866C72.8339 26.9484 73.157 26.1507 73.6417 25.1934C74.0455 24.3956 74.2879 23.6777 74.5302 23.1192C74.7725 22.5608 74.8533 22.0024 74.8533 21.6035C74.8533 20.4867 74.1263 19.6092 72.5916 18.8114C72.0262 20.2474 71.2993 21.7631 70.4915 23.199C69.6838 24.7147 69.0376 25.9113 68.3914 26.9484L67.7452 25.672C69.1184 23.2788 70.33 20.6462 71.38 17.7744C71.0569 17.4553 70.8954 17.0564 70.8954 16.5777C70.8954 15.8598 71.1377 15.1418 71.6223 14.4238C72.107 13.7857 72.5916 13.3868 72.9955 13.3868C73.3186 13.3868 73.5609 13.5463 73.7224 13.9452C73.9648 14.2643 74.0455 14.5834 74.0455 14.8227C74.0455 14.9025 73.9648 15.2216 73.8032 15.6205C73.7224 16.0193 73.5609 16.2587 73.5609 16.4182C73.5609 16.6575 73.7225 16.8171 73.884 17.0564C74.1263 17.2159 74.4494 17.4553 75.0148 17.8541C76.0649 18.4923 76.8726 19.2103 77.438 19.8485C78.0034 20.4867 78.3265 21.2844 78.3265 22.3215C78.3265 22.9597 78.2457 23.5979 78.0034 24.2361C77.7611 24.8743 77.438 25.672 77.0341 26.5495C76.388 27.8259 76.0649 28.7034 76.0649 29.2618C76.0649 29.9 76.4687 30.2989 77.1957 30.2989C78.0842 30.2989 79.0535 29.9798 80.1035 29.2618C81.1536 28.5439 82.1228 27.7461 83.0113 26.7091C83.8999 25.672 84.546 24.7147 84.9499 23.917L86 24.7147C85.4345 25.9911 84.546 27.2675 83.496 28.4641C82.4459 29.6607 81.2343 30.618 79.8612 31.4158C78.5688 32.1337 77.2765 32.4528 75.9841 32.4528Z" fill="#5A5A5A"/>
<path d="M9.30647 47.5482V50.2466H8.23837V48.5263H1.47374L1.46225 50.2466H0.40564L0.417125 47.5482H1.40483V44.0178C1.40483 42.9084 1.71492 42.0577 2.33511 41.4655C2.9553 40.8659 3.7937 40.566 4.85031 40.566C5.91459 40.566 6.75682 40.8659 7.377 41.4655C8.00485 42.0577 8.31877 42.9084 8.31877 44.0178V47.5482H9.30647ZM7.15879 47.5482V43.9053C7.15879 43.1408 6.95589 42.5636 6.55009 42.1738C6.15194 41.7766 5.58535 41.5779 4.85031 41.5779C4.12293 41.5779 3.55634 41.7766 3.15054 42.1738C2.74474 42.5636 2.54184 43.1408 2.54184 43.9053V47.5482H7.15879Z" fill="#5A5A5A"/>
<path d="M13.2585 48.5938C12.6536 48.5938 12.11 48.4626 11.6276 48.2003C11.1452 47.9379 10.7662 47.5781 10.4906 47.1209C10.2226 46.6562 10.0886 46.1315 10.0886 45.5468C10.0886 44.9622 10.2226 44.4413 10.4906 43.984C10.7662 43.5193 11.1452 43.1595 11.6276 42.9047C12.11 42.6423 12.6536 42.5111 13.2585 42.5111C13.8633 42.5111 14.4031 42.6423 14.8778 42.9047C15.3602 43.1595 15.7354 43.5193 16.0034 43.984C16.279 44.4413 16.4168 44.9622 16.4168 45.5468C16.4168 46.1315 16.279 46.6562 16.0034 47.1209C15.7354 47.5781 15.3602 47.9379 14.8778 48.2003C14.4031 48.4626 13.8633 48.5938 13.2585 48.5938ZM13.2585 47.6494C13.6489 47.6494 13.9973 47.5632 14.3036 47.3908C14.6175 47.2109 14.8625 46.9635 15.0386 46.6487C15.2147 46.3264 15.3028 45.9591 15.3028 45.5468C15.3028 45.1346 15.2147 44.7711 15.0386 44.4562C14.8625 44.1339 14.6175 43.8866 14.3036 43.7142C13.9973 43.5418 13.6489 43.4556 13.2585 43.4556C12.868 43.4556 12.5158 43.5418 12.2018 43.7142C11.8956 43.8866 11.6506 44.1339 11.4668 44.4562C11.2907 44.7711 11.2027 45.1346 11.2027 45.5468C11.2027 45.9591 11.2907 46.3264 11.4668 46.6487C11.6506 46.9635 11.8956 47.2109 12.2018 47.3908C12.5158 47.5632 12.868 47.6494 13.2585 47.6494Z" fill="#5A5A5A"/>
<path d="M25.0262 42.5674V48.5263H24.027V44.1752L21.753 47.8517H21.2706L19.0196 44.1639V48.5263H18.0089V42.5674H19.1459L21.5348 46.5925L23.9926 42.5674H25.0262Z" fill="#5A5A5A"/>
<path d="M32.6224 46.0078H31.3591V48.5263H30.2565V42.5674H31.3591V45.0859H32.6454L34.6208 42.5674H35.8038L33.4953 45.4344L35.9646 48.5263H34.6668L32.6224 46.0078Z" fill="#5A5A5A"/>
<path d="M40.0148 42.5111C40.6273 42.5111 41.1671 42.6386 41.6342 42.8934C42.1089 43.1483 42.4726 43.5081 42.7252 43.9728C42.9856 44.43 43.1157 44.9584 43.1157 45.5581C43.1157 46.1502 42.9894 46.6787 42.7367 47.1434C42.4841 47.6006 42.1319 47.9567 41.6801 48.2115C41.2284 48.4664 40.7115 48.5938 40.1296 48.5938C39.6702 48.5938 39.2568 48.5151 38.8893 48.3577C38.5217 48.1928 38.2155 47.9567 37.9705 47.6494V50.7075H36.8564V45.5693C36.8564 44.9697 36.9866 44.4375 37.2469 43.9728C37.5149 43.5081 37.8863 43.1483 38.361 42.8934C38.8433 42.6386 39.3946 42.5111 40.0148 42.5111ZM39.9803 47.6494C40.3708 47.6494 40.723 47.5632 41.037 47.3908C41.3509 47.2109 41.5921 46.9635 41.7605 46.6487C41.9366 46.3264 42.0247 45.9629 42.0247 45.5581C42.0247 45.1533 41.9366 44.7935 41.7605 44.4787C41.5921 44.1564 41.3509 43.9053 41.037 43.7254C40.7307 43.5455 40.3785 43.4556 39.9803 43.4556C39.3755 43.4556 38.8854 43.6505 38.5103 44.0402C38.1351 44.4225 37.9475 44.9247 37.9475 45.5468C37.9475 45.9591 38.0317 46.3264 38.2002 46.6487C38.3763 46.9635 38.6175 47.2109 38.9237 47.3908C39.23 47.5632 39.5822 47.6494 39.9803 47.6494Z" fill="#5A5A5A"/>
<path d="M50.4444 42.5674V48.5263H49.3878V47.5819C49.1428 47.9117 48.8327 48.1628 48.4575 48.3352C48.0823 48.5076 47.6689 48.5938 47.2171 48.5938C46.6276 48.5938 46.0992 48.4664 45.6322 48.2115C45.1651 47.9567 44.7976 47.6006 44.5296 47.1434C44.2693 46.6787 44.1391 46.1465 44.1391 45.5468C44.1391 44.9472 44.2693 44.4188 44.5296 43.9615C44.7976 43.5043 45.1651 43.1483 45.6322 42.8934C46.0992 42.6386 46.6276 42.5111 47.2171 42.5111C47.6535 42.5111 48.0555 42.5936 48.423 42.7585C48.7905 42.9159 49.0968 43.152 49.3418 43.4668V42.5674H50.4444ZM47.309 47.6494C47.6918 47.6494 48.0402 47.5632 48.3541 47.3908C48.668 47.2109 48.9131 46.9635 49.0892 46.6487C49.2653 46.3264 49.3533 45.9591 49.3533 45.5468C49.3533 45.1346 49.2653 44.7711 49.0892 44.4562C48.9131 44.1339 48.668 43.8866 48.3541 43.7142C48.0402 43.5418 47.6918 43.4556 47.309 43.4556C46.9185 43.4556 46.5663 43.5418 46.2524 43.7142C45.9461 43.8866 45.7011 44.1339 45.5173 44.4562C45.3412 44.7711 45.2532 45.1346 45.2532 45.5468C45.2532 45.9591 45.3412 46.3264 45.5173 46.6487C45.7011 46.9635 45.9461 47.2109 46.2524 47.3908C46.5663 47.5632 46.9185 47.6494 47.309 47.6494Z" fill="#5A5A5A"/>
<path d="M55.2065 48.5938C54.5863 48.5938 54.0312 48.4626 53.5412 48.2003C53.0588 47.9379 52.6798 47.5781 52.4042 47.1209C52.1285 46.6562 51.9907 46.1315 51.9907 45.5468C51.9907 44.9622 52.1285 44.4413 52.4042 43.984C52.6798 43.5193 53.0588 43.1595 53.5412 42.9047C54.0312 42.6423 54.5863 42.5111 55.2065 42.5111C55.7578 42.5111 56.2478 42.6198 56.6766 42.8372C57.113 43.0546 57.4499 43.3694 57.6873 43.7816L56.8489 44.3101C56.6574 44.0252 56.4201 43.8116 56.1368 43.6692C55.8535 43.5268 55.5396 43.4556 55.195 43.4556C54.7969 43.4556 54.437 43.5418 54.1154 43.7142C53.8015 43.8866 53.5527 44.1339 53.3689 44.4562C53.1928 44.7711 53.1048 45.1346 53.1048 45.5468C53.1048 45.9666 53.1928 46.3376 53.3689 46.6599C53.5527 46.9748 53.8015 47.2184 54.1154 47.3908C54.437 47.5632 54.7969 47.6494 55.195 47.6494C55.5396 47.6494 55.8535 47.5781 56.1368 47.4357C56.4201 47.2933 56.6574 47.0797 56.8489 46.7949L57.6873 47.3121C57.4499 47.7243 57.113 48.0429 56.6766 48.2677C56.2478 48.4851 55.7578 48.5938 55.2065 48.5938Z" fill="#5A5A5A"/>
<path d="M61.6321 48.5938C61.0272 48.5938 60.4836 48.4626 60.0012 48.2003C59.5188 47.9379 59.1398 47.5781 58.8642 47.1209C58.5962 46.6562 58.4622 46.1315 58.4622 45.5468C58.4622 44.9622 58.5962 44.4413 58.8642 43.984C59.1398 43.5193 59.5188 43.1595 60.0012 42.9047C60.4836 42.6423 61.0272 42.5111 61.6321 42.5111C62.2369 42.5111 62.7767 42.6423 63.2514 42.9047C63.7338 43.1595 64.109 43.5193 64.377 43.984C64.6526 44.4413 64.7904 44.9622 64.7904 45.5468C64.7904 46.1315 64.6526 46.6562 64.377 47.1209C64.109 47.5781 63.7338 47.9379 63.2514 48.2003C62.7767 48.4626 62.2369 48.5938 61.6321 48.5938ZM61.6321 47.6494C62.0226 47.6494 62.3709 47.5632 62.6772 47.3908C62.9911 47.2109 63.2361 46.9635 63.4122 46.6487C63.5883 46.3264 63.6764 45.9591 63.6764 45.5468C63.6764 45.1346 63.5883 44.7711 63.4122 44.4562C63.2361 44.1339 62.9911 43.8866 62.6772 43.7142C62.3709 43.5418 62.0226 43.4556 61.6321 43.4556C61.2416 43.4556 60.8894 43.5418 60.5755 43.7142C60.2692 43.8866 60.0242 44.1339 59.8404 44.4562C59.6643 44.7711 59.5763 45.1346 59.5763 45.5468C59.5763 45.9591 59.6643 46.3264 59.8404 46.6487C60.0242 46.9635 60.2692 47.2109 60.5755 47.3908C60.8894 47.5632 61.2416 47.6494 61.6321 47.6494Z" fill="#5A5A5A"/>
<path d="M73.997 42.5111C74.7627 42.5111 75.3676 42.7285 75.8117 43.1633C76.2634 43.598 76.4893 44.2426 76.4893 45.0971V48.5263H75.3867V45.2208C75.3867 44.6436 75.2489 44.2089 74.9733 43.9166C74.7053 43.6242 74.3186 43.4781 73.8133 43.4781C73.2543 43.4781 72.8103 43.6505 72.481 43.9953C72.1518 44.3326 71.9872 44.8198 71.9872 45.4569V48.5263H70.8846V45.2208C70.8846 44.6436 70.7468 44.2089 70.4712 43.9166C70.2032 43.6242 69.8165 43.4781 69.3112 43.4781C68.7523 43.4781 68.3082 43.6505 67.9789 43.9953C67.6497 44.3326 67.4851 44.8198 67.4851 45.4569V48.5263H66.3825V42.5674H67.4391V43.4556C67.6612 43.1483 67.9521 42.9159 68.312 42.7585C68.6719 42.5936 69.0815 42.5111 69.5409 42.5111C70.0156 42.5111 70.4367 42.6048 70.8042 42.7922C71.1717 42.9796 71.455 43.2532 71.6541 43.613C71.8838 43.2682 72.2016 42.9984 72.6074 42.8035C73.0208 42.6086 73.484 42.5111 73.997 42.5111Z" fill="#5A5A5A"/>
<path d="M80.9774 48.6613C80.1045 48.6613 79.4384 48.4589 78.979 48.0541C78.5273 47.6419 78.3014 47.0535 78.3014 46.2889V42.5674H79.4039V44.8722C79.58 44.6998 79.8251 44.5537 80.139 44.4338C80.4606 44.3138 80.8281 44.2539 81.2415 44.2539C81.9842 44.2539 82.5623 44.4413 82.9758 44.816C83.3969 45.1833 83.6074 45.7005 83.6074 46.3676C83.6074 47.0722 83.3701 47.6306 82.8954 48.0429C82.4207 48.4551 81.7813 48.6613 80.9774 48.6613ZM84.4918 42.5674H85.5943V48.5263H84.4918V42.5674ZM80.9889 47.8405C81.4636 47.8405 81.8311 47.7056 82.0914 47.4357C82.3594 47.1584 82.4934 46.8061 82.4934 46.3789C82.4934 45.9816 82.3594 45.6593 82.0914 45.4119C81.8234 45.1646 81.4406 45.0409 80.9429 45.0409C80.5831 45.0409 80.2691 45.1121 80.0012 45.2545C79.7408 45.3969 79.5418 45.5956 79.4039 45.8504V46.3789C79.4039 46.8361 79.5379 47.1959 79.8059 47.4582C80.0815 47.7131 80.4759 47.8405 80.9889 47.8405Z" fill="#5A5A5A"/>
</svg>
