<svg width="108" height="64" viewBox="0 0 108 64" fill="none" xmlns="http://www.w3.org/2000/svg">
<path d="M11.5051 43.8113C9.32309 43.8113 7.33946 43.2139 5.65336 42.1186C3.86809 41.0233 2.47955 39.4302 1.48773 37.4388C0.495909 35.3478 0 32.9581 0 30.1701C0 25.5898 1.19018 21.0095 3.47136 16.2301C5.85173 11.5503 8.82718 7.66698 12.5961 4.58027C16.365 1.49357 20.1339 0 24.1012 0C25.5889 0 26.8783 0.497856 27.8701 1.49357C27.275 1.394 26.7791 1.394 26.2832 1.394C23.2086 1.394 20.0347 2.88756 16.8609 5.97427C13.6871 9.06098 11.0092 12.8447 8.92637 17.425C6.84355 22.0052 5.75255 26.3864 5.75255 30.5684C5.75255 33.6551 6.34764 36.2439 7.637 38.3349C8.92637 40.3263 10.91 41.322 13.4887 41.322C16.6626 41.322 19.638 39.8285 22.2167 36.8413C24.8946 33.8542 26.9775 30.0705 28.4652 25.6894C30.0521 21.2087 30.7464 16.9271 30.7464 12.8447C30.7464 10.8533 30.548 9.06098 30.1513 7.46784C29.7546 5.8747 29.1595 4.97856 28.2668 4.97856C27.4734 4.97856 26.5807 5.67556 25.5889 6.96998C24.5971 8.26441 23.7045 9.75798 22.8118 11.5503C22.0184 13.3425 21.4233 15.0352 21.1257 16.4292C18.8446 15.9314 17.6544 14.9357 17.6544 13.243C17.6544 11.9485 18.2495 10.5545 19.4396 8.86184C20.6298 7.16912 22.1176 5.77513 23.8036 4.58027C25.4897 3.18628 26.9775 2.58885 28.366 2.58885C30.3496 2.58885 31.639 3.7837 32.4325 6.27298C33.2259 8.66269 33.6226 11.4507 33.6226 14.637C33.6226 20.4121 32.4325 25.5898 30.1513 29.9709C27.8701 34.3521 24.9938 37.837 21.5225 40.2268C18.0511 42.6165 14.7781 43.8113 11.5051 43.8113Z" fill="white"/>
<path d="M39.4892 41.7736C37.8027 41.7736 36.513 41.2729 35.521 40.2714C34.5289 39.3701 34.1321 37.8679 34.1321 35.9652C34.1321 34.5631 34.4297 32.7605 34.9257 30.5573C35.521 28.3541 36.2154 25.9507 37.1082 23.5472C36.1162 23.3469 35.521 23.2467 35.2233 23.0465V21.344C36.1162 21.4441 37.009 21.5443 37.9019 21.6444C39.5884 17.5385 41.2749 14.0334 43.1598 11.029C45.0447 8.12483 46.632 6.62265 47.8224 6.62265C48.2193 6.62265 48.6161 6.72279 48.9137 7.02323C49.2113 7.32367 49.4097 7.72425 49.4097 8.12483C49.4097 8.7257 49.1121 9.52686 48.6161 10.4282C48.1201 11.4296 47.2272 12.9318 46.136 14.9347C44.5487 17.6386 43.259 19.8418 42.3661 21.7446C46.5328 21.7446 49.9058 21.6444 52.3859 21.344V23.1466C48.0209 23.5472 44.3503 23.8476 41.3741 23.8476C39.4892 28.3541 38.4971 31.9594 38.4971 34.8636C38.4971 36.3658 38.6955 37.3672 39.1916 38.0682C39.6876 38.6691 40.382 38.9695 41.4733 38.9695C43.259 38.9695 45.1439 38.1684 47.128 36.4659C49.1121 34.7634 50.7986 32.5602 52.1875 29.656L52.9811 30.1568C51.4931 33.5617 49.5089 36.3658 47.128 38.4688C44.5487 40.7721 42.0685 41.7736 39.4892 41.7736Z" fill="white"/>
<path d="M55.4264 41.7736C53.6944 41.7736 52.3698 41.2729 51.351 40.2714C50.3321 39.3701 49.9246 37.8679 49.9246 35.9652C49.9246 34.5631 50.2302 32.7605 50.7397 30.5573C51.351 28.3541 52.0642 25.9507 52.9812 23.5472C51.9623 23.3469 51.351 23.2467 51.0453 23.0465V21.344C51.9623 21.4441 52.8793 21.5443 53.7963 21.6444C55.5283 17.5385 57.2604 14.0334 59.1963 11.029C61.1321 8.12483 62.7623 6.62265 63.9849 6.62265C64.3925 6.62265 64.8 6.72279 65.1057 7.02323C65.4114 7.32367 65.6151 7.72425 65.6151 8.12483C65.6151 8.7257 65.3095 9.52686 64.8 10.4282C64.2906 11.4296 63.3736 12.9318 62.2529 14.9347C60.6227 17.6386 59.2981 19.8418 58.3812 21.7446C62.6604 21.7446 66.1246 21.6444 68.6717 21.344V23.1466C64.1887 23.5472 60.4189 23.8476 57.3623 23.8476C55.4264 28.3541 54.4076 31.9594 54.4076 34.8636C54.4076 36.3658 54.6114 37.3672 55.1208 38.0682C55.6302 38.6691 56.3434 38.9695 57.4642 38.9695C59.2981 38.9695 61.234 38.1684 63.2717 36.4659C65.3095 34.7634 67.0415 32.5602 68.468 29.656L69.283 30.1568C67.7547 33.5617 65.717 36.3658 63.2717 38.4688C60.6227 40.7721 58.0755 41.7736 55.4264 41.7736Z" fill="white"/>
<path d="M72.5452 41.7736C70.2333 41.7736 68.424 41.165 67.1173 39.8465C65.8106 38.528 65.2075 37.0066 65.2075 35.0795C65.2075 32.9495 65.9111 30.6167 67.4189 28.1825C68.8261 25.6469 70.7359 23.6184 72.9473 21.8941C75.2591 20.1699 77.4705 19.3585 79.5813 19.3585C80.687 19.3585 81.6922 19.6628 82.4963 20.2713C83.3004 20.7785 83.7025 21.7927 83.7025 23.1112C83.7025 24.8355 82.9989 26.5597 81.5916 28.1825C80.1844 29.7039 78.4757 31.0225 76.2643 32.0367C74.1535 33.051 71.9421 33.6595 69.6302 33.9638C69.5297 34.3695 69.5297 34.7752 69.5297 35.2823C69.5297 36.1952 69.8313 37.2094 70.3338 38.1223C70.9369 39.0351 72.0426 39.5422 73.8519 39.5422C76.1638 39.5422 78.3751 38.6294 80.7875 36.8037C83.1999 34.9781 85.1097 32.6453 86.5169 29.9068L87.6226 30.8196C86.1149 34.0652 83.9035 36.7023 81.1896 38.7308C78.3751 40.7593 75.5607 41.7736 72.5452 41.7736ZM70.2333 31.7324C71.54 31.631 73.0478 31.0225 74.656 30.1096C76.3648 29.1968 77.772 28.0811 78.8777 26.7626C79.9834 25.444 80.5865 24.0241 80.5865 22.807C80.5865 22.4013 80.486 22.097 80.3855 21.9956C80.2849 21.8941 79.9834 21.7927 79.6818 21.7927C78.5762 21.7927 77.37 22.2998 76.1638 23.3141C74.8571 24.3284 73.7514 25.5455 72.6457 27.1683C71.54 28.7911 70.7359 30.211 70.2333 31.7324Z" fill="white"/>
<path d="M95.4219 40.7547C94.0018 40.7547 92.886 40.354 92.0745 39.6527C91.263 38.9514 90.7559 38.0498 90.7559 36.8476C90.7559 36.1464 90.8573 35.4451 91.1616 34.6436C91.4659 33.8422 91.8717 32.8404 92.4803 31.6382C92.9874 30.6364 93.2918 29.7347 93.5961 29.0335C93.9004 28.3322 94.0018 27.6309 94.0018 27.13C94.0018 25.7275 93.0889 24.6255 91.1616 23.6237C90.4515 25.4269 89.5386 27.3304 88.5243 29.1336C87.5099 31.0371 86.6984 32.5398 85.8869 33.8422L85.0754 32.2393C86.7999 29.2338 88.3214 25.9278 89.6401 22.3213C89.2343 21.9206 89.0314 21.4197 89.0314 20.8186C89.0314 19.9169 89.3358 19.0153 89.9444 18.1137C90.553 17.3122 91.1616 16.8113 91.6688 16.8113C92.0745 16.8113 92.3788 17.0117 92.5817 17.5126C92.886 17.9133 92.9874 18.314 92.9874 18.6146C92.9874 18.7148 92.886 19.1155 92.6831 19.6164C92.5817 20.1173 92.3788 20.4178 92.3788 20.6182C92.3788 20.9188 92.5817 21.1191 92.7846 21.4197C93.0889 21.62 93.4946 21.9206 94.2047 22.4215C95.5233 23.2229 96.5377 24.1246 97.2478 24.926C97.9578 25.7275 98.3636 26.7293 98.3636 28.0316C98.3636 28.8331 98.2621 29.6346 97.9578 30.436C97.6535 31.2375 97.2478 32.2393 96.7406 33.3413C95.9291 34.9442 95.5233 36.0462 95.5233 36.7474C95.5233 37.5489 96.0305 38.0498 96.9434 38.0498C98.0592 38.0498 99.2765 37.6491 100.595 36.7474C101.914 35.8458 103.131 34.844 104.247 33.5416C105.363 32.2393 106.174 31.0371 106.681 30.0353L108 31.0371C107.29 32.64 106.174 34.2429 104.855 35.7456C103.537 37.2483 102.015 38.4505 100.291 39.4523C98.6679 40.354 97.0449 40.7547 95.4219 40.7547Z" fill="white"/>
<path d="M11.6872 59.7116V63.1003H10.3459V60.94H1.85073L1.83631 63.1003H0.509399L0.523822 59.7116H1.7642V55.2781C1.7642 53.885 2.15362 52.8166 2.93246 52.073C3.7113 51.3199 4.76417 50.9434 6.09108 50.9434C7.42761 50.9434 8.48529 51.3199 9.26413 52.073C10.0526 52.8166 10.4468 53.885 10.4468 55.2781V59.7116H11.6872ZM8.9901 59.7116V55.1369C8.9901 54.1768 8.73529 53.452 8.22568 52.9625C7.72568 52.4636 7.01415 52.2142 6.09108 52.2142C5.17763 52.2142 4.4661 52.4636 3.95649 52.9625C3.44687 53.452 3.19207 54.1768 3.19207 55.1369V59.7116H8.9901Z" fill="white"/>
<path d="M16.6501 61.0248C15.8905 61.0248 15.2079 60.86 14.6021 60.5306C13.9963 60.2011 13.5204 59.7493 13.1742 59.1751C12.8377 58.5915 12.6694 57.9326 12.6694 57.1984C12.6694 56.4641 12.8377 55.8099 13.1742 55.2357C13.5204 54.6521 13.9963 54.2003 14.6021 53.8803C15.2079 53.5508 15.8905 53.3861 16.6501 53.3861C17.4098 53.3861 18.0876 53.5508 18.6838 53.8803C19.2895 54.2003 19.7607 54.6521 20.0972 55.2357C20.4434 55.8099 20.6165 56.4641 20.6165 57.1984C20.6165 57.9326 20.4434 58.5915 20.0972 59.1751C19.7607 59.7493 19.2895 60.2011 18.6838 60.5306C18.0876 60.86 17.4098 61.0248 16.6501 61.0248ZM16.6501 59.8387C17.1405 59.8387 17.578 59.7305 17.9626 59.514C18.3569 59.2881 18.6646 58.9774 18.8857 58.5821C19.1069 58.1773 19.2174 57.7161 19.2174 57.1984C19.2174 56.6806 19.1069 56.2241 18.8857 55.8288C18.6646 55.424 18.3569 55.1134 17.9626 54.8969C17.578 54.6804 17.1405 54.5721 16.6501 54.5721C16.1598 54.5721 15.7175 54.6804 15.3232 54.8969C14.9386 55.1134 14.6309 55.424 14.4002 55.8288C14.179 56.2241 14.0684 56.6806 14.0684 57.1984C14.0684 57.7161 14.179 58.1773 14.4002 58.5821C14.6309 58.9774 14.9386 59.2881 15.3232 59.514C15.7175 59.7305 16.1598 59.8387 16.6501 59.8387Z" fill="white"/>
<path d="M31.4283 53.4567V60.94H30.1735V55.4758L27.3177 60.0929H26.712L23.8851 55.4617V60.94H22.6158V53.4567H24.0437L27.0437 58.5115L30.1302 53.4567H31.4283Z" fill="white"/>
<path d="M40.9677 57.7773H39.3812V60.94H37.9966V53.4567H39.3812V56.6195H40.9965L43.4773 53.4567H44.9629L42.0638 57.0572L45.1648 60.94H43.535L40.9677 57.7773Z" fill="white"/>
<path d="M50.2511 53.3861C51.0203 53.3861 51.6982 53.5461 52.2848 53.8661C52.8809 54.1862 53.3376 54.638 53.6549 55.2216C53.9819 55.7958 54.1453 56.4594 54.1453 57.2125C54.1453 57.9561 53.9867 58.6197 53.6694 59.2033C53.3521 59.7775 52.9098 60.2247 52.3425 60.5447C51.7751 60.8647 51.1261 61.0248 50.3954 61.0248C49.8184 61.0248 49.2992 60.9259 48.8377 60.7282C48.3761 60.5212 47.9915 60.2247 47.6838 59.8387V63.6792H46.2848V57.2266C46.2848 56.4736 46.4483 55.8052 46.7752 55.2216C47.1117 54.638 47.5781 54.1862 48.1742 53.8661C48.78 53.5461 49.4723 53.3861 50.2511 53.3861ZM50.2079 59.8387C50.6982 59.8387 51.1405 59.7305 51.5348 59.514C51.929 59.2881 52.2319 58.9774 52.4434 58.5821C52.6646 58.1773 52.7751 57.7208 52.7751 57.2125C52.7751 56.7042 52.6646 56.2523 52.4434 55.857C52.2319 55.4522 51.929 55.1369 51.5348 54.911C51.1502 54.6851 50.7078 54.5721 50.2079 54.5721C49.4482 54.5721 48.8329 54.8169 48.3617 55.3063C47.8906 55.7864 47.655 56.4171 47.655 57.1984C47.655 57.7161 47.7608 58.1773 47.9723 58.5821C48.1934 58.9774 48.4963 59.2881 48.8809 59.514C49.2656 59.7305 49.7079 59.8387 50.2079 59.8387Z" fill="white"/>
<path d="M63.3487 53.4567V60.94H62.0218V59.754C61.7141 60.1682 61.3247 60.4835 60.8536 60.7C60.3824 60.9165 59.8632 61.0248 59.2959 61.0248C58.5555 61.0248 57.8921 60.8647 57.3055 60.5447C56.719 60.2247 56.2575 59.7775 55.9209 59.2033C55.594 58.6197 55.4305 57.9514 55.4305 57.1984C55.4305 56.4453 55.594 55.7817 55.9209 55.2075C56.2575 54.6333 56.719 54.1862 57.3055 53.8661C57.8921 53.5461 58.5555 53.3861 59.2959 53.3861C59.844 53.3861 60.3488 53.4896 60.8103 53.6967C61.2718 53.8944 61.6565 54.1909 61.9641 54.5862V53.4567H63.3487ZM59.4113 59.8387C59.892 59.8387 60.3295 59.7305 60.7238 59.514C61.118 59.2881 61.4257 58.9774 61.6468 58.5821C61.868 58.1773 61.9786 57.7161 61.9786 57.1984C61.9786 56.6806 61.868 56.2241 61.6468 55.8288C61.4257 55.424 61.118 55.1134 60.7238 54.8969C60.3295 54.6804 59.892 54.5721 59.4113 54.5721C58.9209 54.5721 58.4786 54.6804 58.0844 54.8969C57.6998 55.1134 57.3921 55.424 57.1613 55.8288C56.9401 56.2241 56.8296 56.6806 56.8296 57.1984C56.8296 57.7161 56.9401 58.1773 57.1613 58.5821C57.3921 58.9774 57.6998 59.2881 58.0844 59.514C58.4786 59.7305 58.9209 59.8387 59.4113 59.8387Z" fill="white"/>
<path d="M69.3291 61.0248C68.5502 61.0248 67.8531 60.86 67.2378 60.5306C66.632 60.2011 66.156 59.7493 65.8099 59.1751C65.4637 58.5915 65.2907 57.9326 65.2907 57.1984C65.2907 56.4641 65.4637 55.8099 65.8099 55.2357C66.156 54.6521 66.632 54.2003 67.2378 53.8803C67.8531 53.5508 68.5502 53.3861 69.3291 53.3861C70.0214 53.3861 70.6368 53.5226 71.1752 53.7955C71.7233 54.0685 72.1464 54.4639 72.4444 54.9816L71.3916 55.6452C71.1512 55.2875 70.8531 55.0192 70.4973 54.8404C70.1416 54.6615 69.7474 54.5721 69.3147 54.5721C68.8147 54.5721 68.3627 54.6804 67.9589 54.8969C67.5647 55.1134 67.2522 55.424 67.0214 55.8288C66.8003 56.2241 66.6897 56.6806 66.6897 57.1984C66.6897 57.7255 66.8003 58.1914 67.0214 58.5962C67.2522 58.9915 67.5647 59.2975 67.9589 59.514C68.3627 59.7305 68.8147 59.8387 69.3147 59.8387C69.7474 59.8387 70.1416 59.7493 70.4973 59.5704C70.8531 59.3916 71.1512 59.1233 71.3916 58.7656L72.4444 59.4151C72.1464 59.9328 71.7233 60.3329 71.1752 60.6153C70.6368 60.8883 70.0214 61.0248 69.3291 61.0248Z" fill="white"/>
<path d="M77.3984 61.0248C76.6388 61.0248 75.9561 60.86 75.3503 60.5306C74.7446 60.2011 74.2686 59.7493 73.9225 59.1751C73.5859 58.5915 73.4177 57.9326 73.4177 57.1984C73.4177 56.4641 73.5859 55.8099 73.9225 55.2357C74.2686 54.6521 74.7446 54.2003 75.3503 53.8803C75.9561 53.5508 76.6388 53.3861 77.3984 53.3861C78.158 53.3861 78.8359 53.5508 79.432 53.8803C80.0378 54.2003 80.5089 54.6521 80.8455 55.2357C81.1916 55.8099 81.3647 56.4641 81.3647 57.1984C81.3647 57.9326 81.1916 58.5915 80.8455 59.1751C80.5089 59.7493 80.0378 60.2011 79.432 60.5306C78.8359 60.86 78.158 61.0248 77.3984 61.0248ZM77.3984 59.8387C77.8888 59.8387 78.3263 59.7305 78.7109 59.514C79.1051 59.2881 79.4128 58.9774 79.6339 58.5821C79.8551 58.1773 79.9657 57.7161 79.9657 57.1984C79.9657 56.6806 79.8551 56.2241 79.6339 55.8288C79.4128 55.424 79.1051 55.1134 78.7109 54.8969C78.3263 54.6804 77.8888 54.5721 77.3984 54.5721C76.908 54.5721 76.4657 54.6804 76.0715 54.8969C75.6869 55.1134 75.3792 55.424 75.1484 55.8288C74.9273 56.2241 74.8167 56.6806 74.8167 57.1984C74.8167 57.7161 74.9273 58.1773 75.1484 58.5821C75.3792 58.9774 75.6869 59.2881 76.0715 59.514C76.4657 59.7305 76.908 59.8387 77.3984 59.8387Z" fill="white"/>
<path d="M92.9265 53.3861C93.888 53.3861 94.6476 53.6591 95.2053 54.205C95.7726 54.751 96.0563 55.5605 96.0563 56.6336V60.94H94.6717V56.7889C94.6717 56.0641 94.4986 55.5181 94.1525 55.151C93.8159 54.7839 93.3303 54.6004 92.6957 54.6004C91.9938 54.6004 91.4361 54.8169 91.0227 55.2499C90.6092 55.6734 90.4025 56.2853 90.4025 57.0854V60.94H89.0179V56.7889C89.0179 56.0641 88.8448 55.5181 88.4987 55.151C88.1621 54.7839 87.6765 54.6004 87.0419 54.6004C86.34 54.6004 85.7823 54.8169 85.3689 55.2499C84.9554 55.6734 84.7487 56.2853 84.7487 57.0854V60.94H83.3641V53.4567H84.691V54.5721C84.9698 54.1862 85.3352 53.8944 85.7871 53.6967C86.2391 53.4896 86.7535 53.3861 87.3304 53.3861C87.9265 53.3861 88.4554 53.5037 88.9169 53.7391C89.3785 53.9744 89.7342 54.318 89.9842 54.7698C90.2727 54.3368 90.6717 53.9979 91.1813 53.7532C91.7006 53.5084 92.2823 53.3861 92.9265 53.3861Z" fill="white"/>
<path d="M101.693 61.1095C100.596 61.1095 99.7598 60.8553 99.1829 60.347C98.6156 59.8293 98.332 59.0904 98.332 58.1302V53.4567H99.7166V56.3512C99.9377 56.1347 100.245 55.9511 100.64 55.8005C101.043 55.6499 101.505 55.5746 102.024 55.5746C102.957 55.5746 103.683 55.8099 104.202 56.2806C104.731 56.7418 104.995 57.3913 104.995 58.2291C104.995 59.1139 104.697 59.8152 104.101 60.3329C103.505 60.8506 102.702 61.1095 101.693 61.1095ZM106.106 53.4567H107.491V60.94H106.106V53.4567ZM101.707 60.0787C102.303 60.0787 102.765 59.9093 103.092 59.5704C103.428 59.2222 103.596 58.7797 103.596 58.2432C103.596 57.7443 103.428 57.3396 103.092 57.0289C102.755 56.7183 102.274 56.563 101.649 56.563C101.197 56.563 100.803 56.6524 100.467 56.8312C100.14 57.0101 99.8896 57.2595 99.7166 57.5796V58.2432C99.7166 58.8174 99.8848 59.2692 100.221 59.5987C100.568 59.9187 101.063 60.0787 101.707 60.0787Z" fill="white"/>
</svg>
