<svg width="100" height="40" viewBox="0 0 100 40" fill="none" xmlns="http://www.w3.org/2000/svg">
<path d="M10.7733 40C8.75543 40 6.92569 39.4872 5.28404 38.4615C3.6424 37.469 2.34276 36.0298 1.38514 34.1439C0.461713 32.2581 0 30.0579 0 27.5434C0 23.3747 1.07733 19.1398 3.23199 14.8387C5.42085 10.5376 8.25952 6.99752 11.748 4.21836C15.2365 1.40612 18.8105 0 22.47 0C23.8722 0 25.0351 0.463193 25.9585 1.38958C25.4113 1.32341 24.9154 1.29032 24.4708 1.29032C21.5979 1.29032 18.6566 2.6799 15.6469 5.45906C12.6714 8.23821 10.209 11.7122 8.25952 15.8809C6.31007 20.0496 5.33534 24.0364 5.33534 27.8412C5.33534 30.6865 5.91676 33.0356 7.07959 34.8883C8.27662 36.708 10.1064 37.6179 12.5688 37.6179C15.5443 37.6179 18.2633 36.2448 20.7258 33.4988C23.2224 30.7527 25.1719 27.3449 26.5741 23.2754C28.0105 19.1729 28.7288 15.2688 28.7288 11.5633C28.7288 9.74359 28.5407 8.10587 28.1645 6.65012C27.8224 5.16129 27.241 4.41687 26.4202 4.41687C25.702 4.41687 24.8641 5.01241 23.9064 6.20347C22.983 7.36146 22.128 8.76758 21.3414 10.4218C20.5548 12.0761 20.0246 13.5649 19.751 14.8883C17.5964 14.4582 16.519 13.4988 16.519 12.0099C16.519 10.8519 17.0834 9.512 18.212 7.99008C19.3406 6.46816 20.6916 5.16129 22.2648 4.06948C23.838 2.94458 25.2574 2.38214 26.5228 2.38214C28.3355 2.38214 29.6009 3.49049 30.3191 5.7072C31.0373 7.92391 31.3964 10.4715 31.3964 13.3499C31.3964 18.6435 30.3191 23.3251 28.1645 27.3945C26.0098 31.4309 23.325 34.5409 20.1101 36.7246C16.9295 38.9082 13.8172 40 10.7733 40Z" fill="white"/>
<path d="M36.6432 37.9653C35.07 37.9653 33.8387 37.5186 32.9495 36.6253C32.0603 35.7651 31.6157 34.4748 31.6157 32.7543C31.6157 31.464 31.8722 29.8263 32.3852 27.8412C32.8982 25.823 33.5822 23.689 34.4372 21.4392C33.548 21.2738 32.9495 21.1249 32.6417 20.9926V19.4541C33.4625 19.5534 34.2833 19.6361 35.1042 19.7022C36.6432 15.9636 38.2848 12.7543 40.0291 10.0744C41.8075 7.39454 43.244 6.05459 44.3384 6.05459C44.7146 6.05459 45.0395 6.18693 45.3131 6.45161C45.6209 6.71629 45.7749 7.06369 45.7749 7.4938C45.7749 8.02316 45.5354 8.73449 45.0566 9.62779C44.5778 10.5211 43.7912 11.8776 42.6968 13.6973C41.1919 16.1456 40.012 18.1969 39.157 19.8511C43.0901 19.8511 46.2195 19.7353 48.5451 19.5037V21.1414C44.5094 21.5385 41.0722 21.737 38.2335 21.737C36.4551 25.8065 35.5659 29.1315 35.5659 31.7122C35.5659 33.0687 35.7882 34.0281 36.2328 34.5906C36.6774 35.153 37.3785 35.4342 38.3362 35.4342C40.0462 35.4342 41.7904 34.6898 43.5689 33.201C45.3815 31.6791 46.9548 29.6278 48.2886 27.0471L49.0068 27.5434C47.6046 30.6203 45.792 33.1348 43.5689 35.0868C41.3458 37.0058 39.0373 37.9653 36.6432 37.9653Z" fill="white"/>
<path d="M51.4224 37.9653C49.8492 37.9653 48.6179 37.5186 47.7287 36.6253C46.8395 35.7651 46.3949 34.4748 46.3949 32.7543C46.3949 31.464 46.6514 29.8263 47.1644 27.8412C47.6774 25.823 48.3614 23.689 49.2165 21.4392C48.3272 21.2738 47.7287 21.1249 47.4209 20.9926V19.4541C48.2417 19.5534 49.0625 19.6361 49.8834 19.7022C51.4224 15.9636 53.0641 12.7543 54.8083 10.0744C56.5867 7.39454 58.0232 6.05459 59.1176 6.05459C59.4938 6.05459 59.8187 6.18693 60.0923 6.45161C60.4001 6.71629 60.5541 7.06369 60.5541 7.4938C60.5541 8.02316 60.3146 8.73449 59.8358 9.62779C59.357 10.5211 58.5704 11.8776 57.476 13.6973C55.9711 16.1456 54.7912 18.1969 53.9362 19.8511C57.8693 19.8511 60.9987 19.7353 63.3243 19.5037V21.1414C59.2886 21.5385 55.8514 21.737 53.0128 21.737C51.2343 25.8065 50.3451 29.1315 50.3451 31.7122C50.3451 33.0687 50.5674 34.0281 51.012 34.5906C51.4566 35.153 52.1577 35.4342 53.1154 35.4342C54.8254 35.4342 56.5696 34.6898 58.3481 33.201C60.1607 31.6791 61.734 29.6278 63.0678 27.0471L63.786 27.5434C62.3838 30.6203 60.5712 33.1348 58.3481 35.0868C56.125 37.0058 53.8165 37.9653 51.4224 37.9653Z" fill="white"/>
<path d="M67.4841 37.866C65.3295 37.866 63.6536 37.3036 62.4566 36.1787C61.2596 35.0538 60.6611 33.6146 60.6611 31.861C60.6611 29.9421 61.328 27.8743 62.6618 25.6576C63.9957 23.4078 65.7057 21.5385 67.792 20.0496C69.8782 18.5277 71.9303 17.7668 73.9481 17.7668C75.0083 17.7668 75.8976 18.0314 76.6158 18.5608C77.334 19.0571 77.6931 19.9007 77.6931 21.0918C77.6931 22.6799 77.0604 24.1853 75.795 25.6079C74.5295 26.9975 72.8879 28.139 70.87 29.0323C68.8864 29.9256 66.8514 30.488 64.7652 30.7196C64.6968 31.0505 64.6626 31.4309 64.6626 31.861C64.6626 32.7213 64.902 33.5815 65.3808 34.4417C65.8938 35.3019 66.9711 35.732 68.6128 35.732C70.699 35.732 72.8195 34.9214 74.9741 33.3002C77.163 31.646 78.9244 29.5947 80.2582 27.1464L81.2842 27.9405C79.9162 30.9181 77.9496 33.3168 75.3846 35.1365C72.8537 36.9562 70.2202 37.866 67.4841 37.866ZM65.3295 28.8834C66.5607 28.751 67.9288 28.2713 69.4336 27.4442C70.9726 26.617 72.2723 25.6079 73.3325 24.4169C74.3927 23.1927 74.9228 22.0017 74.9228 20.8437C74.9228 20.4797 74.8544 20.2316 74.7176 20.0993C74.5808 19.9669 74.3585 19.9007 74.0507 19.9007C73.0589 19.9007 71.9645 20.3639 70.7674 21.2903C69.6046 22.1836 68.5273 23.3251 67.5354 24.7146C66.5436 26.1042 65.8083 27.4938 65.3295 28.8834Z" fill="white"/>
<path d="M88.5085 36.9727C87.243 36.9727 86.217 36.6419 85.4304 35.9802C84.6438 35.3515 84.2505 34.4913 84.2505 33.3995C84.2505 32.7709 84.3702 32.0926 84.6096 31.3648C84.8832 30.6038 85.2765 29.694 85.7895 28.6352C86.2341 27.7089 86.5761 26.9314 86.8155 26.3027C87.0549 25.641 87.1747 25.062 87.1747 24.5658C87.1747 23.3085 86.3196 22.2498 84.6096 21.3896C83.9256 23.0438 83.1218 24.7146 82.1984 26.402C81.3092 28.0893 80.5055 29.512 79.7873 30.67L79.0177 29.2308C80.591 26.5178 81.9761 23.5236 83.1731 20.2481C82.8311 19.9173 82.6601 19.4706 82.6601 18.9082C82.6601 18.048 82.9337 17.2374 83.481 16.4764C84.0282 15.7155 84.5583 15.335 85.0713 15.335C85.4133 15.335 85.6869 15.5335 85.8921 15.9305C86.1315 16.3275 86.2512 16.6584 86.2512 16.9231C86.2512 17.0554 86.1657 17.3532 85.9947 17.8164C85.8579 18.2465 85.7553 18.5608 85.6869 18.7593C85.7211 18.9909 85.8579 19.2225 86.0973 19.4541C86.3367 19.6526 86.7813 19.9504 87.4312 20.3474C88.6282 21.1084 89.5516 21.8528 90.2014 22.5806C90.8854 23.2754 91.2275 24.2184 91.2275 25.4094C91.2275 26.1373 91.0907 26.8652 90.8171 27.5931C90.5776 28.3209 90.2014 29.1977 89.6884 30.2233C88.936 31.6791 88.5598 32.7213 88.5598 33.3499C88.5598 34.1108 88.9873 34.4913 89.8423 34.4913C90.8683 34.4913 91.9799 34.0943 93.1769 33.3002C94.4081 32.5062 95.5197 31.5467 96.5115 30.4218C97.5375 29.2639 98.2899 28.1886 98.7688 27.196L100 28.0893C99.316 29.5782 98.3583 31.0008 97.1271 32.3573C95.8959 33.7138 94.5107 34.8222 92.9717 35.6824C91.4669 36.5426 89.9791 36.9727 88.5085 36.9727Z" fill="white"/>
</svg>
