<svg width="30" height="30" viewBox="0 0 30 30" fill="none" xmlns="http://www.w3.org/2000/svg">
<g clip-path="url(#clip0)">
<path d="M14.8941 28.1458C15.138 28.1009 15.3433 27.9533 15.4717 27.7415C18.3786 22.8645 18.9818 20.0025 19.4182 17.9105C19.4759 17.641 19.5273 17.3779 19.585 17.1276L27.0225 16.2228C28.6652 16.1907 30 14.8431 30 13.1939C30 11.564 28.7422 10.2485 27.1251 10.165C27.093 10.165 27.0674 10.1586 27.0353 10.1586L22.6588 10.1586L11.9743 10.088L12.8663 8.93294C13.0588 8.70835 14.323 7.14257 14.323 5.2046C14.323 3.89551 13.7711 2.73401 12.693 1.75219C12.3914 1.47626 11.9422 1.45059 11.6086 1.68802C11.493 1.77145 8.70802 3.76075 5.87166 6.87947C4.19679 8.7276 2.85562 10.5886 1.88663 12.411C0.654546 14.734 0.0192518 17.0057 3.83678e-07 19.1682C3.82276e-07 19.2003 3.80593e-07 19.2388 3.7919e-07 19.2709C2.5016e-07 22.2228 0.975402 24.5201 2.89412 26.0987C7.16791 29.6153 14.5797 28.2035 14.8941 28.1458ZM3.98503 24.7575C2.48342 23.5255 1.7262 21.6773 1.7262 19.2709C1.7262 19.2388 1.7262 19.2132 1.7262 19.1811C1.75829 14.888 4.67808 10.7682 7.123 8.07305C9.0738 5.92332 11.0374 4.29979 12 3.5554C12.3914 4.06236 12.584 4.60781 12.584 5.21102C12.584 6.60353 11.5508 7.80995 11.538 7.81637C11.5251 7.8292 11.5123 7.84845 11.4995 7.86129L9.52941 10.4217C9.33048 10.6848 9.29198 11.0313 9.43957 11.3329C9.58075 11.6281 9.88235 11.8142 10.2096 11.8206L22.646 11.9041L26.9775 11.9041C26.984 11.9041 26.9968 11.9041 27.0032 11.9041C27.7091 11.9233 28.261 12.4944 28.261 13.2003C28.261 13.919 27.677 14.4966 26.9647 14.4966C26.9326 14.4966 26.8941 14.4966 26.862 14.503L18.7829 15.472C18.4299 15.5169 18.1412 15.7672 18.0513 16.1073C17.9294 16.5693 17.8267 17.0442 17.7241 17.5511C17.3005 19.5789 16.7679 22.0944 14.1882 26.5094C12.6995 26.7276 7.13583 27.3501 3.98503 24.7575Z" fill="#333333"/>
</g>
<defs>
<clipPath id="clip0">
<rect width="30" height="30" fill="white" transform="translate(30) rotate(90)"/>
</clipPath>
</defs>
</svg>
