<svg width="50" height="50" viewBox="0 0 50 50" fill="none" xmlns="http://www.w3.org/2000/svg">
<circle cx="25" cy="25" r="25" fill="#7B519D"/>
<path fill-rule="evenodd" clip-rule="evenodd" d="M35.6244 31.091C34.862 30.4773 34.0473 29.9264 33.2454 29.3637C31.646 28.2404 30.1831 28.153 28.9897 29.9603C28.3195 30.9749 27.3813 31.0194 26.4003 30.5742C23.696 29.348 21.6077 27.4586 20.3844 24.7099C19.8433 23.4937 19.8505 22.4034 21.1165 21.5433C21.7868 21.0884 22.4621 20.5502 22.4081 19.5562C22.3376 18.2602 19.191 13.9292 17.9483 13.472C17.4342 13.2829 16.9221 13.2952 16.399 13.471C13.4852 14.4509 12.2784 16.8472 13.4342 19.6845C16.8823 28.1497 22.9504 34.0428 31.3034 37.6397C31.7797 37.8445 32.3087 37.9264 32.5766 37.9999C34.4784 38.019 36.7062 36.1867 37.3495 34.3684C37.969 32.619 36.6598 31.9246 35.6244 31.091ZM26.2585 14.3399C32.3651 15.279 35.1814 18.1827 35.959 24.3334C36.0312 24.9015 35.8195 25.7564 36.6301 25.7721C37.4772 25.7883 37.2731 24.946 37.2802 24.3774C37.3518 18.5846 32.3009 13.2145 26.435 13.0165C25.9925 13.0802 25.0767 12.7113 25.0196 13.7032C24.9815 14.372 25.7525 14.2621 26.2585 14.3399V14.3399Z" fill="white"/>
<path fill-rule="evenodd" clip-rule="evenodd" d="M27.4531 16.0263C26.8657 15.9556 26.0903 15.6788 25.9531 16.4938C25.8097 17.3493 26.674 17.2624 27.2293 17.3867C31.0009 18.2296 32.3142 19.6024 32.9352 23.3436C33.0259 23.8891 32.8457 24.738 33.7726 24.5973C34.4596 24.4927 34.2114 23.765 34.2689 23.3399C34.2993 19.7481 31.2215 16.4788 27.4531 16.0263V16.0263Z" fill="white"/>
<path fill-rule="evenodd" clip-rule="evenodd" d="M27.7995 18.9635C27.4074 18.9732 27.0226 19.0156 26.8785 19.4346C26.662 20.0609 27.1173 20.2102 27.5808 20.2846C29.1279 20.533 29.9422 21.4453 30.0967 22.9882C30.1385 23.4069 30.4042 23.7463 30.8087 23.6985C31.3693 23.6316 31.42 23.1327 31.4028 22.6589C31.4305 20.9255 29.4713 18.922 27.7995 18.9635V18.9635Z" fill="white"/>
</svg>
