<svg width="22" height="22" viewBox="0 0 22 22" fill="none" xmlns="http://www.w3.org/2000/svg">
<g clip-path="url(#clip0)">
<path d="M19.5064 9.97166C19.8192 9.56723 20.0676 9.24273 20.251 8.99791C21.572 7.24158 22.1446 6.11963 21.9691 5.63048L21.9003 5.51593C21.8545 5.44712 21.7359 5.38393 21.5452 5.32673C21.3542 5.26957 21.1099 5.26044 20.8122 5.29817L17.5134 5.32144C17.437 5.31384 17.3606 5.31561 17.2842 5.32673C17.2079 5.33834 17.1583 5.35 17.1353 5.36111C17.1122 5.37277 17.0933 5.38211 17.0781 5.38971L17.0323 5.4241C16.9942 5.44687 16.9522 5.48708 16.9064 5.54452C16.8606 5.60193 16.8222 5.66846 16.7918 5.74508C16.4329 6.669 16.0245 7.52819 15.5662 8.32237C15.2836 8.79586 15.0239 9.20661 14.7875 9.55359C14.5507 9.90136 14.3522 10.1571 14.1918 10.321C14.0315 10.4851 13.8862 10.6171 13.7565 10.716C13.6265 10.8157 13.5274 10.8574 13.4589 10.8423C13.39 10.8271 13.325 10.8119 13.2641 10.7962C13.1571 10.7277 13.0711 10.6343 13.0064 10.5157C12.9414 10.3977 12.8976 10.2486 12.8746 10.0691C12.8518 9.88975 12.8382 9.73498 12.8346 9.60496C12.8306 9.47524 12.8326 9.29212 12.8404 9.05511C12.848 8.81834 12.8518 8.65828 12.8518 8.57406C12.8518 8.28419 12.8576 7.96907 12.8691 7.62915C12.8804 7.28948 12.8901 7.02011 12.8976 6.82153C12.9052 6.62325 12.909 6.41306 12.909 6.1915C12.909 5.97044 12.8956 5.79641 12.8687 5.67024C12.8419 5.54452 12.8017 5.42236 12.7486 5.30375C12.695 5.18564 12.6168 5.09381 12.5136 5.02909C12.4105 4.96408 12.2827 4.91275 12.13 4.87428C11.725 4.78245 11.2096 4.73339 10.5836 4.72534C9.16319 4.71066 8.25065 4.8022 7.84597 5.00049C7.68562 5.08472 7.54044 5.19903 7.41071 5.34421C7.27313 5.51241 7.25416 5.6042 7.35356 5.61887C7.81183 5.68768 8.13613 5.85208 8.32706 6.11157L8.39587 6.2489C8.44922 6.34854 8.50262 6.5241 8.55622 6.77599C8.60961 7.02792 8.644 7.30663 8.65941 7.61217C8.6976 8.16959 8.6976 8.64663 8.65941 9.04399C8.62123 9.44131 8.58506 9.75039 8.55068 9.97145C8.51626 10.193 8.46468 10.3723 8.39612 10.5097C8.32731 10.6475 8.28156 10.7315 8.25854 10.762C8.23552 10.7924 8.21655 10.8116 8.20138 10.8192C8.10199 10.8572 7.99905 10.8764 7.89209 10.8764C7.78509 10.8764 7.65533 10.8228 7.50258 10.7158C7.3498 10.6093 7.19122 10.4621 7.02732 10.2749C6.86292 10.088 6.67802 9.82627 6.47163 9.49012C6.26549 9.1545 6.0515 8.75714 5.83019 8.29911L5.64707 7.96675C5.53251 7.7533 5.37593 7.44194 5.17739 7.03346C4.97885 6.62498 4.80305 6.22994 4.65055 5.84778C4.58934 5.68768 4.49776 5.56552 4.37564 5.48129L4.31849 5.44691C4.2803 5.41653 4.21909 5.38393 4.13512 5.34975C4.05089 5.31536 3.9634 5.29057 3.87157 5.27515L0.733062 5.29792C0.412363 5.29792 0.194858 5.37078 0.0802988 5.51593L0.0345082 5.58449C0.011365 5.62292 0 5.68413 0 5.76786C0 5.85208 0.0230193 5.95503 0.0688098 6.07694C0.527087 7.15389 1.02537 8.1924 1.56357 9.19244C2.10207 10.193 2.56973 10.9988 2.9668 11.6096C3.36387 12.2209 3.76855 12.7971 4.18107 13.3393C4.5936 13.8816 4.86649 14.2288 5.00001 14.3814C5.13354 14.5344 5.23851 14.649 5.31493 14.7251L5.60124 15.0002C5.78436 15.1834 6.05373 15.4029 6.40886 15.6589C6.76394 15.9148 7.157 16.1667 7.58875 16.4146C8.02 16.663 8.52229 16.865 9.09488 17.0219C9.66751 17.1787 10.2249 17.2416 10.7672 17.2108H12.0844C12.3518 17.188 12.554 17.1043 12.6915 16.9589L12.7372 16.9017C12.7675 16.8562 12.7964 16.7854 12.8232 16.69C12.8497 16.5946 12.8635 16.4894 12.8635 16.3751C12.8556 16.0468 12.8807 15.7504 12.9378 15.4874C12.995 15.2238 13.0599 15.0255 13.1326 14.8915C13.2052 14.7582 13.2871 14.6454 13.3789 14.5536C13.4705 14.4617 13.5352 14.4069 13.5736 14.3876C13.6118 14.3689 13.6425 14.3555 13.6653 14.3474C13.8483 14.2864 14.0641 14.3456 14.3124 14.525C14.5606 14.7048 14.7935 14.9258 15.0113 15.1894C15.2287 15.4529 15.4903 15.7486 15.7958 16.0771C16.1011 16.4054 16.3684 16.6497 16.5976 16.8101L16.8267 16.9479C16.9794 17.0392 17.1778 17.1232 17.4224 17.1999C17.6667 17.276 17.8807 17.2952 18.0637 17.257L20.9961 17.211C21.2862 17.211 21.5116 17.1635 21.672 17.0678C21.8323 16.973 21.9277 16.8673 21.9583 16.753C21.9886 16.6384 21.9907 16.5092 21.9641 16.3637C21.9373 16.2188 21.9105 16.1176 21.884 16.0604C21.8572 16.0033 21.8323 15.9552 21.8093 15.9173C21.4275 15.2301 20.6982 14.3861 19.6215 13.3858L19.5985 13.363L19.5872 13.3514L19.5758 13.3402H19.5643C19.0754 12.8744 18.7663 12.5612 18.6365 12.4006C18.3999 12.0956 18.3462 11.7863 18.4762 11.4732C18.5673 11.2358 18.9107 10.7355 19.5064 9.97166Z" fill="#4F4F4F"/>
</g>
<defs>
<clipPath id="clip0">
<rect width="22" height="22" fill="white"/>
</clipPath>
</defs>
</svg>
