<svg width="70" height="70" viewBox="0 0 70 70" fill="none" xmlns="http://www.w3.org/2000/svg">
<g filter="url(#filter0_d)">
<rect x="10" y="10" width="50" height="50" rx="25" fill="white"/>
</g>
<g clip-path="url(#clip0)">
<path d="M43.5064 33.9717C43.8192 33.5672 44.0676 33.2427 44.251 32.9979C45.572 31.2416 46.1446 30.1196 45.9691 29.6305L45.9003 29.5159C45.8545 29.4471 45.7359 29.3839 45.5452 29.3267C45.3542 29.2696 45.1099 29.2604 44.8122 29.2982L41.5134 29.3214C41.437 29.3138 41.3606 29.3156 41.2842 29.3267C41.2079 29.3383 41.1583 29.35 41.1353 29.3611C41.1122 29.3728 41.0933 29.3821 41.0781 29.3897L41.0323 29.4241C40.9942 29.4469 40.9522 29.4871 40.9064 29.5445C40.8606 29.6019 40.8222 29.6685 40.7918 29.7451C40.4329 30.669 40.0245 31.5282 39.5662 32.3224C39.2836 32.7959 39.0239 33.2066 38.7875 33.5536C38.5507 33.9014 38.3522 34.1571 38.1918 34.321C38.0315 34.4851 37.8862 34.6171 37.7565 34.716C37.6265 34.8157 37.5274 34.8574 37.4589 34.8423C37.39 34.8271 37.325 34.8119 37.2641 34.7962C37.1571 34.7277 37.0711 34.6343 37.0064 34.5157C36.9414 34.3977 36.8976 34.2486 36.8746 34.0691C36.8518 33.8897 36.8382 33.735 36.8346 33.605C36.8306 33.4752 36.8326 33.2921 36.8404 33.0551C36.848 32.8183 36.8518 32.6583 36.8518 32.5741C36.8518 32.2842 36.8576 31.9691 36.8691 31.6292C36.8804 31.2895 36.8901 31.0201 36.8976 30.8215C36.9052 30.6232 36.909 30.4131 36.909 30.1915C36.909 29.9704 36.8956 29.7964 36.8687 29.6702C36.8419 29.5445 36.8017 29.4224 36.7486 29.3038C36.695 29.1856 36.6168 29.0938 36.5136 29.0291C36.4105 28.9641 36.2827 28.9128 36.13 28.8743C35.725 28.7825 35.2096 28.7334 34.5836 28.7253C33.1632 28.7107 32.2506 28.8022 31.846 29.0005C31.6856 29.0847 31.5404 29.199 31.4107 29.3442C31.2731 29.5124 31.2542 29.6042 31.3536 29.6189C31.8118 29.6877 32.1361 29.8521 32.3271 30.1116L32.3959 30.2489C32.4492 30.3485 32.5026 30.5241 32.5562 30.776C32.6096 31.0279 32.644 31.3066 32.6594 31.6122C32.6976 32.1696 32.6976 32.6466 32.6594 33.044C32.6212 33.4413 32.5851 33.7504 32.5507 33.9715C32.5163 34.193 32.4647 34.3723 32.3961 34.5097C32.3273 34.6475 32.2816 34.7315 32.2585 34.762C32.2355 34.7924 32.2166 34.8116 32.2014 34.8192C32.102 34.8572 31.999 34.8764 31.8921 34.8764C31.7851 34.8764 31.6553 34.8228 31.5026 34.7158C31.3498 34.6093 31.1912 34.4621 31.0273 34.2749C30.8629 34.088 30.678 33.8263 30.4716 33.4901C30.2655 33.1545 30.0515 32.7571 29.8302 32.2991L29.6471 31.9668C29.5325 31.7533 29.3759 31.4419 29.1774 31.0335C28.9789 30.625 28.803 30.2299 28.6506 29.8478C28.5893 29.6877 28.4978 29.5655 28.3756 29.4813L28.3185 29.4469C28.2803 29.4165 28.2191 29.3839 28.1351 29.3497C28.0509 29.3154 27.9634 29.2906 27.8716 29.2752L24.7331 29.2979C24.4124 29.2979 24.1949 29.3708 24.0803 29.5159L24.0345 29.5845C24.0114 29.6229 24 29.6841 24 29.7679C24 29.8521 24.023 29.955 24.0688 30.0769C24.5271 31.1539 25.0254 32.1924 25.5636 33.1924C26.1021 34.193 26.5697 34.9988 26.9668 35.6096C27.3639 36.2209 27.7685 36.7971 28.1811 37.3393C28.5936 37.8816 28.8665 38.2288 29 38.3814C29.1335 38.5344 29.2385 38.649 29.3149 38.7251L29.6012 39.0002C29.7844 39.1834 30.0537 39.4029 30.4089 39.6589C30.7639 39.9148 31.157 40.1667 31.5887 40.4146C32.02 40.663 32.5223 40.865 33.0949 41.0219C33.6675 41.1787 34.2249 41.2416 34.7672 41.2108H36.0844C36.3518 41.188 36.554 41.1043 36.6915 40.9589L36.7372 40.9017C36.7675 40.8562 36.7964 40.7854 36.8232 40.69C36.8497 40.5946 36.8635 40.4894 36.8635 40.3751C36.8556 40.0468 36.8807 39.7504 36.9378 39.4874C36.995 39.2238 37.0599 39.0255 37.1326 38.8915C37.2052 38.7582 37.2871 38.6454 37.3789 38.5536C37.4705 38.4617 37.5352 38.4069 37.5736 38.3876C37.6118 38.3689 37.6425 38.3555 37.6653 38.3474C37.8483 38.2864 38.0641 38.3457 38.3124 38.525C38.5606 38.7048 38.7935 38.9258 39.0113 39.1894C39.2287 39.4529 39.4903 39.7486 39.7958 40.0771C40.1011 40.4054 40.3684 40.6497 40.5976 40.8101L40.8267 40.9479C40.9794 41.0392 41.1778 41.1232 41.4224 41.1999C41.6667 41.276 41.8807 41.2952 42.0637 41.257L44.9961 41.211C45.2862 41.211 45.5116 41.1635 45.672 41.0678C45.8323 40.973 45.9277 40.8673 45.9583 40.753C45.9886 40.6384 45.9907 40.5092 45.9641 40.3637C45.9373 40.2188 45.9105 40.1176 45.884 40.0604C45.8572 40.0033 45.8323 39.9552 45.8093 39.9173C45.4275 39.2301 44.6982 38.3861 43.6215 37.3858L43.5985 37.363L43.5872 37.3514L43.5758 37.3402H43.5643C43.0754 36.8744 42.7663 36.5612 42.6365 36.4006C42.3999 36.0956 42.3462 35.7863 42.4762 35.4732C42.5673 35.2358 42.9107 34.7355 43.5064 33.9717Z" fill="#4F4F4F"/>
</g>
<defs>
<filter id="filter0_d" x="0" y="0" width="70" height="70" filterUnits="userSpaceOnUse" color-interpolation-filters="sRGB">
<feFlood flood-opacity="0" result="BackgroundImageFix"/>
<feColorMatrix in="SourceAlpha" type="matrix" values="0 0 0 0 0 0 0 0 0 0 0 0 0 0 0 0 0 0 127 0"/>
<feOffset/>
<feGaussianBlur stdDeviation="5"/>
<feColorMatrix type="matrix" values="0 0 0 0 0.898039 0 0 0 0 0.898039 0 0 0 0 0.898039 0 0 0 1 0"/>
<feBlend mode="normal" in2="BackgroundImageFix" result="effect1_dropShadow"/>
<feBlend mode="normal" in="SourceGraphic" in2="effect1_dropShadow" result="shape"/>
</filter>
<clipPath id="clip0">
<rect width="22" height="22" fill="white" transform="translate(24 24)"/>
</clipPath>
</defs>
</svg>
