<svg width="50" height="50" viewBox="0 0 50 50" fill="none" xmlns="http://www.w3.org/2000/svg">
<path d="M0 50L3.44824 37.5C1.20693 33.6207 0 29.3104 0 24.8275C0 11.2069 11.2069 0 24.9138 0C38.6206 0 50 11.2069 50 24.8275C50 38.4481 38.6207 50 24.9138 50C20.6034 50 16.4655 48.6207 12.7586 46.5518L0 50Z" fill="url(#paint0_linear)"/>
<path d="M13.4483 42.069L14.2242 42.5001C17.4138 44.4828 21.1208 45.6897 25.0001 45.6897C36.2931 45.6897 45.6897 36.2931 45.6897 24.8276C45.6897 13.3621 36.2931 4.31042 24.9138 4.31042C13.5345 4.31042 4.31042 13.4483 4.31042 24.8276C4.31042 28.7931 5.43113 32.6724 7.50007 35.9483L8.01736 36.7242L6.03464 43.9656L13.4483 42.069Z" fill="#55CD6C"/>
<path d="M18.2758 13.2759L16.6379 13.1897C16.1206 13.1897 15.6034 13.3622 15.2586 13.707C14.4827 14.3966 13.1896 15.6897 12.8448 17.4139C12.2414 20.0001 13.1896 23.1036 15.431 26.207C17.6724 29.3104 21.9828 34.3104 29.5689 36.4656C31.9827 37.1552 33.8793 36.7242 35.431 35.7759C36.638 35 37.4138 33.7932 37.6724 32.5L37.931 31.2931C38.0173 30.9483 37.8448 30.5172 37.5 30.3449L32.0689 27.8449C31.7241 27.6724 31.2931 27.7586 31.0345 28.1035L28.8793 30.8621C28.7068 31.0345 28.4482 31.1207 28.1896 31.0345C26.7241 30.5172 21.8103 28.4483 19.1379 23.2759C19.0517 23.0173 19.0516 22.7586 19.2241 22.5863L21.2931 20.2587C21.4655 20.0001 21.5516 19.6553 21.4655 19.3966L18.9655 13.7932C18.8792 13.5345 18.6206 13.2759 18.2758 13.2759Z" fill="#FEFEFE"/>
<defs>
<linearGradient id="paint0_linear" x1="25" y1="0" x2="25" y2="50" gradientUnits="userSpaceOnUse">
<stop stop-color="#F7F7F7"/>
<stop offset="1" stop-color="#F1F4F4"/>
</linearGradient>
</defs>
</svg>
